<svg width="42" height="42" viewBox="0 0 42 42" fill="none" xmlns="http://www.w3.org/2000/svg">
<path d="M0.823381 13.8843C2.34354 7.40368 7.40369 2.34353 13.8843 0.82338C18.5646 -0.274459 23.4354 -0.27446 28.1157 0.823378C34.5963 2.34353 39.6565 7.40369 41.1766 13.8843C42.2745 18.5646 42.2745 23.4354 41.1766 28.1157C39.6565 34.5963 34.5963 39.6565 28.1157 41.1766C23.4354 42.2745 18.5646 42.2745 13.8843 41.1766C7.40369 39.6565 2.34354 34.5963 0.823381 28.1157C-0.27446 23.4354 -0.27446 18.5646 0.823381 13.8843Z" fill="url(#paint0_linear_425_3552)"/>
<path d="M32.7036 16.4382C32.4246 15.9616 31.812 15.8014 31.3354 16.0804C30.8587 16.3593 30.6985 16.9719 30.9775 17.4485L32.7036 16.4382ZM31.8405 25.5011L30.9775 24.9959L30.9775 24.9959L31.8405 25.5011ZM17.8906 29.843C17.3684 29.6633 16.7993 29.9409 16.6196 30.4631C16.4398 30.9853 16.7175 31.5544 17.2397 31.7341L17.8906 29.843ZM11.1595 25.5011L12.0225 24.9959L12.0225 24.9959L11.1595 25.5011ZM11.1595 16.9434L12.0225 17.4485L12.0225 17.4485L11.1595 16.9434ZM23.9197 18.6563C24.3194 19.0375 24.9524 19.0225 25.3335 18.6228C25.7147 18.2231 25.6997 17.5902 25.3 17.209L23.9197 18.6563ZM17.3069 24.9749C17.6657 25.3947 18.2969 25.4441 18.7168 25.0853C19.1366 24.7264 19.186 24.0952 18.8271 23.6754L17.3069 24.9749ZM27.0447 21.2998C27.0447 20.7475 26.5969 20.2998 26.0447 20.2998C25.4924 20.2998 25.0447 20.7475 25.0447 21.2998H27.0447ZM21.4993 24.9158C20.947 24.9158 20.4993 25.3636 20.4993 25.9158C20.4993 26.4681 20.947 26.9158 21.4993 26.9158V24.9158ZM32.2752 11.7015C32.6626 11.3079 32.6576 10.6748 32.264 10.2873C31.8704 9.89991 31.2373 9.9049 30.8498 10.2985L32.2752 11.7015ZM11.4436 30.0128C11.0562 30.4064 11.0611 31.0395 11.4547 31.4269C11.8483 31.8144 12.4815 31.8094 12.8689 31.4158L11.4436 30.0128ZM30.9775 17.4485C32.3408 19.7776 32.3408 22.6669 30.9775 24.9959L32.7036 26.0062C34.4321 23.0532 34.4321 19.3913 32.7036 16.4382L30.9775 17.4485ZM30.9775 24.9959C28.147 29.8315 22.5701 31.4537 17.8906 29.843L17.2397 31.7341C22.7487 33.6304 29.3546 31.7276 32.7036 26.0062L30.9775 24.9959ZM12.0225 24.9959C10.6592 22.6669 10.6592 19.7776 12.0225 17.4485L10.2964 16.4382C8.56786 19.3913 8.56786 23.0532 10.2964 26.0062L12.0225 24.9959ZM14.4385 27.8845C13.5154 27.1041 12.6937 26.1426 12.0225 24.9959L10.2964 26.0062C11.0821 27.3485 12.0509 28.4849 13.1473 29.4118L14.4385 27.8845ZM12.0225 17.4485C15.4766 11.5476 23.0295 10.434 28.0216 14.1324L29.2121 12.5254C23.317 8.158 14.3846 9.4541 10.2964 16.4382L12.0225 17.4485ZM17.9553 21.2998C17.9553 19.2858 19.5567 17.6823 21.4993 17.6823V15.6823C18.4221 15.6823 15.9553 18.2114 15.9553 21.2998H17.9553ZM21.4993 17.6823C22.4334 17.6823 23.2836 18.0497 23.9197 18.6563L25.3 17.209C24.3098 16.2646 22.9716 15.6823 21.4993 15.6823V17.6823ZM18.8271 23.6754C18.2847 23.0408 17.9553 22.2118 17.9553 21.2998H15.9553C15.9553 22.7026 16.4642 23.9891 17.3069 24.9749L18.8271 23.6754ZM25.0447 21.2998C25.0447 23.3117 23.4425 24.9158 21.4993 24.9158V26.9158C24.5758 26.9158 27.0447 24.3873 27.0447 21.2998H25.0447ZM30.8498 10.2985L11.4436 30.0128L12.8689 31.4158L32.2752 11.7015L30.8498 10.2985Z" fill="black"/>
<defs>
<linearGradient id="paint0_linear_425_3552" x1="42.7332" y1="48.6478" x2="2.60389" y2="6.9997" gradientUnits="userSpaceOnUse">
<stop stop-color="#9BEEE9"/>
<stop offset="1" stop-color="#38DDD3" stop-opacity="0.73"/>
</linearGradient>
</defs>
</svg>
