<svg width="32" height="32" viewBox="0 0 32 32" fill="none" xmlns="http://www.w3.org/2000/svg">
<rect width="32" height="32" rx="3" fill="black"/>
<path d="M5.98513 14.6172C9.92632 8.35937 22.0737 8.35937 26.0149 14.6172C27.3284 16.7028 27.3284 18.3756 26.0149 20.4612C22.0737 26.7191 9.92632 26.7191 5.98513 20.4612C4.67162 18.3756 4.67162 16.7028 5.98513 14.6172Z" fill="#2EE6CB"/>
<path d="M19.3409 17.6815C19.3409 19.2364 17.9922 20.57 16.2357 20.57V22.0835C18.7444 22.0835 20.8545 20.1536 20.8545 17.6815H19.3409ZM16.2357 20.57C14.4797 20.57 13.1318 19.2367 13.1318 17.6815H11.6182C11.6182 20.1533 13.7268 22.0835 16.2357 22.0835V20.57ZM13.1318 17.6815C13.1318 16.1251 14.4798 14.7919 16.2357 14.7919V13.2784C13.7267 13.2784 11.6182 15.2087 11.6182 17.6815H13.1318ZM16.2357 14.7919C17.992 14.7919 19.3409 16.1254 19.3409 17.6815H20.8545C20.8545 15.2084 18.7445 13.2784 16.2357 13.2784V14.7919Z" fill="black"/>
<rect x="15.4082" y="4" width="1.69231" height="16.0769" rx="0.846154" fill="#2EE6CB"/>
<rect x="21.9219" y="7.38281" width="1.69231" height="14.3846" rx="0.846154" fill="#2EE6CB"/>
<rect x="8.38477" y="7.38281" width="1.69231" height="14.3846" rx="0.846154" fill="#2EE6CB"/>
</svg>
