<svg width="526" height="674" viewBox="0 0 526 674" fill="none" xmlns="http://www.w3.org/2000/svg">
<path d="M436 364.209V255.898C436 232.794 410.302 218.967 391.022 231.697L17.9607 478.006C6.74701 485.41 0 497.949 0 511.387V619.698C0 642.802 25.6981 656.629 44.9784 643.899L418.039 397.59C429.253 390.186 436 377.646 436 364.209Z" fill="url(#paint0_linear_411_3145)"/>
<path d="M526 82.1062V37.1643C526 21.2321 508.28 11.6959 494.983 20.4723L297.966 150.51C286.749 157.913 280 170.454 280 183.894V228.836C280 244.768 297.72 254.304 311.017 245.528L508.034 115.49C519.251 108.087 526 95.5457 526 82.1062Z" fill="url(#paint1_linear_411_3145)"/>
<defs>
<linearGradient id="paint0_linear_411_3145" x1="218" y1="202" x2="218" y2="673.596" gradientUnits="userSpaceOnUse">
<stop stop-color="#38DDD3"/>
<stop offset="1" stop-color="#38DDD3" stop-opacity="0.08"/>
</linearGradient>
<linearGradient id="paint1_linear_411_3145" x1="403" y1="0" x2="403" y2="266" gradientUnits="userSpaceOnUse">
<stop stop-color="#38DDD3"/>
<stop offset="1" stop-color="#38DDD3" stop-opacity="0.08"/>
</linearGradient>
</defs>
</svg>
