<svg width="167" height="81" viewBox="0 0 167 81" fill="none" xmlns="http://www.w3.org/2000/svg">
<path fill-rule="evenodd" clip-rule="evenodd" d="M34.7498 8.79147L9.25436 34.287L34.7498 59.7824L60.2453 34.287L34.7498 8.79147ZM37.3873 2.63739C35.9307 1.18076 33.569 1.18077 32.1124 2.6374L3.10028 31.6495C1.64365 33.1061 1.64366 35.4678 3.10029 36.9244L32.1124 65.9365C33.569 67.3931 35.9307 67.3931 37.3873 65.9365L66.3994 36.9244C67.856 35.4678 67.856 33.1061 66.3994 31.6495L37.3873 2.63739Z" fill="#2EE5CB"/>
<path d="M34.2038 22.0168C34.7654 21.4552 35.6759 21.4552 36.2375 22.0168L47.4226 33.2019C47.9841 33.7634 47.9841 34.6739 47.4226 35.2355L36.2375 46.4206C35.6759 46.9822 34.7654 46.9822 34.2038 46.4206L23.0187 35.2355C22.4571 34.6739 22.4571 33.7634 23.0187 33.2019L34.2038 22.0168Z" fill="#2EE5CB"/>
<path fill-rule="evenodd" clip-rule="evenodd" d="M35.2206 24.3894L25.3913 34.2187L35.2206 44.048L45.05 34.2187L35.2206 24.3894ZM36.2375 22.0168C35.6759 21.4552 34.7654 21.4552 34.2038 22.0168L23.0187 33.2019C22.4571 33.7634 22.4571 34.6739 23.0187 35.2355L34.2038 46.4206C34.7654 46.9822 35.6759 46.9822 36.2375 46.4206L47.4226 35.2355C47.9841 34.6739 47.9841 33.7634 47.4226 33.2019L36.2375 22.0168Z" fill="#2EE5CB"/>
<path fill-rule="evenodd" clip-rule="evenodd" d="M63.346 34.2869C63.346 32.5703 64.7377 31.1787 66.4543 31.1787H163.433C165.149 31.1787 166.541 32.5703 166.541 34.2869C166.541 36.0036 165.149 37.3952 163.433 37.3952H66.4543C64.7377 37.3952 63.346 36.0036 63.346 34.2869Z" fill="#2EE5CB"/>
<path fill-rule="evenodd" clip-rule="evenodd" d="M128.62 31.8003C130.337 31.8003 131.728 33.1919 131.728 34.9086L131.728 69.7213C131.728 71.438 130.337 72.8296 128.62 72.8296C126.903 72.8296 125.512 71.438 125.512 69.7213V34.9086C125.512 33.1919 126.903 31.8003 128.62 31.8003ZM146.026 31.8003C147.743 31.8003 149.135 33.1919 149.135 34.9086V77.8029C149.135 79.5195 147.743 80.9111 146.026 80.9111C144.31 80.9111 142.918 79.5195 142.918 77.8029V34.9086C142.918 33.1919 144.31 31.8003 146.026 31.8003ZM163.433 31.8003C165.149 31.8003 166.541 33.1919 166.541 34.9086V57.9099C166.541 59.6265 165.149 61.0182 163.433 61.0182C161.716 61.0182 160.324 59.6265 160.324 57.9099V34.9086C160.324 33.1919 161.716 31.8003 163.433 31.8003Z" fill="#2EE5CB"/>
</svg>
