<svg width="136" height="27" viewBox="0 0 136 27" fill="none" xmlns="http://www.w3.org/2000/svg">
<path d="M20.7384 12.0773C20.3602 12.4576 20.0706 12.9165 19.8902 13.4214C19.7097 13.9263 19.643 14.4647 19.6946 14.9984L19.6766 14.9804C19.7297 15.6086 19.6449 16.2407 19.4283 16.8328C19.2116 17.4248 18.8683 17.9625 18.4223 18.4082C17.9763 18.854 17.4383 19.1971 16.8459 19.4136C16.2535 19.6301 15.621 19.7148 14.9925 19.6617L15.0104 19.6797C14.2586 19.6098 13.5035 19.7733 12.848 20.1479C12.1926 20.5226 11.6687 21.0902 11.3478 21.7733C11.027 22.4564 10.9248 23.2218 11.0551 23.9651C11.1854 24.7084 11.542 25.3935 12.0762 25.9268C12.6103 26.4602 13.2961 26.8159 14.04 26.9455C14.7839 27.0751 15.5496 26.9722 16.2329 26.651C16.9161 26.3297 17.4836 25.8056 17.8579 25.1502C18.2322 24.4948 18.3951 23.74 18.3244 22.9887L18.3434 23.0067C18.2904 22.3785 18.3751 21.7464 18.5917 21.1543C18.8084 20.5623 19.1517 20.0246 19.5977 19.5789C20.0437 19.1331 20.5817 18.7901 21.1741 18.5735C21.7665 18.357 22.399 18.2723 23.0275 18.3254L23.0086 18.3074C23.6227 18.3626 24.2409 18.262 24.8058 18.0148C25.3707 17.7677 25.864 17.3821 26.24 16.8937C26.6161 16.4052 26.8626 15.8299 26.9569 15.2208C27.0512 14.6118 26.9901 13.9889 26.7794 13.4097C26.5686 12.8306 26.215 12.314 25.7513 11.9078C25.2875 11.5016 24.7287 11.219 24.1266 11.0861C23.5244 10.9532 22.8985 10.9744 22.3067 11.1477C21.715 11.321 21.1765 11.6407 20.7414 12.0773H20.7384Z" fill="white"/>
<path d="M13.1861 17.2049L13.1669 17.1867C13.7081 17.2413 14.2547 17.1748 14.7671 16.9922C15.2796 16.8096 15.745 16.5154 16.1298 16.1308C16.5146 15.7463 16.8091 15.281 16.9921 14.7687C17.1751 14.2563 17.2419 13.7097 17.1878 13.1683L17.207 13.1865C17.1533 12.5496 17.2391 11.9087 17.4586 11.3084C17.6781 10.7082 18.0259 10.163 18.4778 9.71107C18.9297 9.25912 19.4748 8.91125 20.075 8.69173C20.6752 8.47221 21.3161 8.38633 21.9529 8.44009L21.9337 8.42189C22.6955 8.49344 23.4608 8.32822 24.1253 7.94877C24.7897 7.56931 25.321 6.99409 25.6466 6.30157C25.9721 5.60905 26.0762 4.83295 25.9445 4.07911C25.8129 3.32528 25.4519 2.63041 24.9108 2.0893C24.3698 1.54819 23.675 1.18717 22.9213 1.05548C22.1675 0.923797 21.3915 1.02786 20.6991 1.35347C20.0066 1.67909 19.4315 2.21041 19.0521 2.87495C18.6727 3.5395 18.5075 4.30492 18.579 5.06682L18.5608 5.04761C18.6147 5.68454 18.529 6.32556 18.3096 6.92592C18.0901 7.52627 17.7423 8.07148 17.2904 8.52347C16.8384 8.97546 16.2933 9.32333 15.693 9.54279C15.0927 9.76224 14.4518 9.84799 13.8149 9.79405L13.8331 9.81327C13.2919 9.75872 12.7453 9.82516 12.2329 10.0078C11.7204 10.1904 11.255 10.4846 10.8702 10.8692C10.4854 11.2537 10.1909 11.719 10.0079 12.2313C9.82491 12.7437 9.75807 13.2903 9.8122 13.8317L9.794 13.8135C9.84758 14.4503 9.76159 15.0912 9.54203 15.6914C9.32248 16.2916 8.97464 16.8366 8.52278 17.2885C8.07093 17.7404 7.52593 18.0883 6.92582 18.3079C6.3257 18.5275 5.6849 18.6135 5.04813 18.5599L5.06633 18.5781C4.30452 18.5066 3.53919 18.6718 2.87473 19.0512C2.21026 19.4307 1.67901 20.0059 1.35343 20.6984C1.02786 21.3909 0.923805 22.1671 1.05547 22.9209C1.18714 23.6747 1.54812 24.3696 2.08917 24.9107C2.63022 25.4518 3.325 25.8128 4.07874 25.9445C4.83249 26.0762 5.6085 25.9721 6.30093 25.6465C6.99337 25.3209 7.56852 24.7896 7.94793 24.125C8.32733 23.4605 8.49254 22.6951 8.42099 21.9332L8.4402 21.9514C8.38645 21.3145 8.47231 20.6735 8.69181 20.0733C8.9113 19.473 9.25913 18.9279 9.71103 18.4759C10.1629 18.024 10.708 17.6761 11.3082 17.4566C11.9084 17.2371 12.5493 17.1512 13.1861 17.2049V17.2049Z" fill="white"/>
<path d="M6.25782 14.9225C6.63611 14.5422 6.92574 14.0832 7.10603 13.5782C7.28633 13.0732 7.35283 12.5347 7.30081 12.001L7.31977 12.0189C7.26667 11.3905 7.35147 10.7581 7.56826 10.1659C7.78505 9.57358 8.1286 9.03575 8.57493 8.58991C9.02125 8.14407 9.55958 7.80097 10.1523 7.58457C10.7451 7.36817 11.3779 7.28369 12.0067 7.33703L11.9878 7.31908C12.7395 7.38946 13.4947 7.2264 14.1504 6.85213C14.806 6.47786 15.3302 5.9106 15.6514 5.2277C15.9726 4.54481 16.0752 3.77953 15.9452 3.03622C15.8152 2.29292 15.459 1.60776 14.9251 1.0742C14.3912 0.540636 13.7056 0.184636 12.9618 0.054747C12.218 -0.0751416 11.4522 0.0274045 10.7689 0.3484C10.0856 0.669395 9.51793 1.19321 9.14341 1.84842C8.7689 2.50363 8.60573 3.25834 8.67616 4.00962L8.65819 3.99167C8.71126 4.6199 8.62649 5.25213 8.40982 5.84425C8.19314 6.43636 7.84977 6.97408 7.40368 7.41989C6.95758 7.86569 6.41951 8.20884 5.82701 8.42537C5.23451 8.64191 4.60187 8.72661 3.97323 8.67358L3.9912 8.69154C3.37695 8.63649 2.75874 8.73728 2.19385 8.98456C1.62896 9.23184 1.13566 9.61761 0.75968 10.1061C0.383695 10.5947 0.137183 11.1701 0.0429896 11.7792C-0.051204 12.3883 0.00996702 13.0113 0.220835 13.5904C0.431703 14.1696 0.785445 14.6862 1.24928 15.0924C1.71312 15.4985 2.27204 15.7811 2.87425 15.9139C3.47647 16.0468 4.10249 16.0255 4.69431 15.8522C5.28613 15.6789 5.8246 15.3591 6.25982 14.9225H6.25782Z" fill="white"/>
<path d="M37.0156 5H40.0156V20H37.0156V5Z" fill="white"/>
<path d="M42.0158 14.5218C42.0114 13.4331 42.3303 12.3677 42.932 11.4603C43.5336 10.553 44.3911 9.84464 45.3957 9.42499C46.4003 9.00535 47.5068 8.89329 48.5752 9.10301C49.6435 9.31273 50.6255 9.83479 51.3969 10.6031C52.1683 11.3714 52.6943 12.3513 52.9083 13.4187C53.1223 14.4862 53.0147 15.5932 52.5991 16.5994C52.1835 17.6056 51.4785 18.4659 50.5736 19.0712C49.6687 19.6765 48.6044 19.9996 47.5157 19.9996C46.793 20.0079 46.0759 19.872 45.4064 19.5999C44.7368 19.3278 44.1282 18.925 43.6161 18.415C43.104 17.9049 42.6988 17.298 42.424 16.6295C42.1492 15.9611 42.0104 15.2445 42.0158 14.5218V14.5218ZM49.9025 14.5218C49.8895 14.0526 49.7385 13.5975 49.4683 13.2136C49.1981 12.8297 48.8207 12.534 48.3834 12.3634C47.946 12.1928 47.4681 12.1549 47.0093 12.2544C46.5505 12.3539 46.1312 12.5865 45.8039 12.923C45.4766 13.2595 45.2557 13.6851 45.1689 14.1464C45.0821 14.6078 45.1333 15.0845 45.3159 15.517C45.4986 15.9494 45.8047 16.3184 46.196 16.5779C46.5872 16.8373 47.0463 16.9757 47.5157 16.9756C47.8372 16.9842 48.157 16.9261 48.455 16.8049C48.7529 16.6838 49.0225 16.5022 49.2467 16.2716C49.471 16.0411 49.645 15.7666 49.7579 15.4654C49.8707 15.1643 49.92 14.843 49.9025 14.5218V14.5218Z" fill="white"/>
<path d="M65.0156 9.29424V19.0661C65.0156 22.5237 62.3375 23.9853 59.6191 23.9853C58.662 24.0574 57.7036 23.8628 56.8491 23.4227C55.9946 22.9826 55.277 22.314 54.7749 21.4904L57.3911 19.9674C57.6021 20.3968 57.9383 20.751 58.3548 20.9826C58.7712 21.2143 59.248 21.3124 59.7213 21.2638C60.0238 21.306 60.3318 21.2791 60.6227 21.1853C60.9135 21.0914 61.1796 20.9329 61.4014 20.7215C61.6231 20.5101 61.7948 20.2512 61.9038 19.9639C62.0128 19.6767 62.0562 19.3684 62.0308 19.062V18.1212C61.6718 18.5635 61.2148 18.915 60.6964 19.1473C60.1781 19.3797 59.6128 19.4865 59.0461 19.4591C57.6975 19.4162 56.4184 18.8467 55.4795 17.8711C54.5406 16.8954 54.0156 15.5902 54.0156 14.2316C54.0156 12.8731 54.5406 11.5679 55.4795 10.5922C56.4184 9.61654 57.6975 9.04702 59.0461 9.0042C59.6128 8.97682 60.1781 9.08358 60.6964 9.31593C61.2148 9.54828 61.6718 9.89975 62.0308 10.3421V9.29216L65.0156 9.29424ZM62.0319 14.2332C62.0525 13.7356 61.9247 13.2432 61.6651 12.8194C61.4054 12.3955 61.0257 12.0596 60.5748 11.8549C60.1239 11.6501 59.6225 11.586 59.1351 11.6706C58.6477 11.7552 58.1966 11.9848 57.8399 12.3297C57.4832 12.6747 57.2371 13.1192 57.1334 13.6062C57.0297 14.0931 57.0731 14.6002 57.258 15.0621C57.443 15.524 57.7609 15.9196 58.171 16.198C58.5811 16.4763 59.0646 16.6248 59.5592 16.6242C59.8814 16.6468 60.2047 16.6013 60.5083 16.4905C60.8119 16.3796 61.0892 16.206 61.3221 15.9808C61.555 15.7555 61.7385 15.4837 61.8608 15.1827C61.983 14.8817 62.0413 14.5582 62.0319 14.2332V14.2332Z" fill="white"/>
<path d="M66.0158 14.5218C66.0114 13.4331 66.3303 12.3677 66.932 11.4603C67.5336 10.553 68.3911 9.84464 69.3957 9.42499C70.4003 9.00535 71.5068 8.89329 72.5752 9.10301C73.6435 9.31273 74.6255 9.83479 75.3969 10.6031C76.1683 11.3714 76.6943 12.3513 76.9083 13.4187C77.1223 14.4862 77.0147 15.5932 76.5991 16.5994C76.1835 17.6056 75.4785 18.4659 74.5736 19.0712C73.6687 19.6765 72.6044 19.9996 71.5157 19.9996C70.793 20.0079 70.0759 19.872 69.4064 19.5999C68.7368 19.3278 68.1282 18.925 67.6161 18.415C67.104 17.9049 66.6988 17.298 66.424 16.6295C66.1492 15.9611 66.0104 15.2445 66.0158 14.5218V14.5218ZM73.9025 14.5218C73.8895 14.0526 73.7385 13.5975 73.4683 13.2136C73.1981 12.8297 72.8207 12.534 72.3834 12.3634C71.946 12.1928 71.4681 12.1549 71.0093 12.2544C70.5505 12.3539 70.1312 12.5865 69.8039 12.923C69.4766 13.2595 69.2557 13.6851 69.1689 14.1464C69.0821 14.6078 69.1333 15.0845 69.3159 15.517C69.4986 15.9494 69.8047 16.3184 70.196 16.5779C70.5872 16.8373 71.0463 16.9757 71.5157 16.9756C71.8372 16.9842 72.157 16.9261 72.455 16.8049C72.7529 16.6838 73.0225 16.5022 73.2467 16.2716C73.471 16.0411 73.645 15.7666 73.7579 15.4654C73.8707 15.1643 73.92 14.843 73.9025 14.5218Z" fill="white"/>
<path d="M78.0156 6.86467C78.0156 6.49587 78.1329 6.13536 78.3527 5.82872C78.5725 5.52207 78.8848 5.28307 79.2503 5.14194C79.6157 5.00081 80.0178 4.96388 80.4058 5.03583C80.7938 5.10778 81.1501 5.28537 81.4298 5.54615C81.7095 5.80693 81.9 6.13918 81.9772 6.50089C82.0544 6.8626 82.0148 7.23752 81.8634 7.57825C81.712 7.91897 81.4557 8.21019 81.1268 8.41508C80.7979 8.61997 80.4112 8.72934 80.0156 8.72934C79.4868 8.72443 78.9812 8.5264 78.6072 8.17777C78.2333 7.82913 78.0209 7.35769 78.0156 6.86467V6.86467ZM78.3523 9.64074H81.6868V20H78.3478L78.3523 9.64074Z" fill="white"/>
<path d="M94.0085 14.1802C94.0439 14.8279 93.9455 15.4759 93.7189 16.0871C93.4923 16.6982 93.142 17.2603 92.6881 17.7411C92.2342 18.2219 91.6857 18.6119 91.0742 18.8887C90.4626 19.1655 89.8001 19.3236 89.1246 19.3539C88.5566 19.3836 87.9887 19.2917 87.4623 19.0848C86.9359 18.878 86.464 18.5614 86.0809 18.1579V23H83.0156V9.27969H86.0809V10.2004C86.4642 9.79724 86.9361 9.48088 87.4625 9.27421C87.9889 9.06755 88.5566 8.97575 89.1246 9.00546C89.8002 9.03562 90.4629 9.19365 91.0746 9.47043C91.6863 9.74722 92.2349 10.1373 92.6888 10.6183C93.1427 11.0992 93.493 11.6615 93.7195 12.2728C93.946 12.8841 94.0442 13.5323 94.0085 14.1802V14.1802ZM90.9431 14.1802C90.9312 13.7215 90.7784 13.2764 90.504 12.9005C90.2296 12.5247 89.8457 12.2349 89.4004 12.0673C88.9551 11.8997 88.4682 11.8618 88.0005 11.9584C87.5329 12.0549 87.1053 12.2817 86.7714 12.6102C86.4374 12.9387 86.2119 13.3544 86.123 13.8052C86.0341 14.256 86.0859 14.722 86.2717 15.1448C86.4576 15.5676 86.7693 15.9284 87.1679 16.1821C87.5665 16.4358 88.0342 16.571 88.5126 16.571C88.841 16.585 89.1687 16.5323 89.4744 16.4163C89.7801 16.3003 90.0567 16.1236 90.2862 15.8979C90.5157 15.6721 90.6929 15.4024 90.8061 15.1064C90.9193 14.8103 90.966 14.4947 90.9431 14.1802V14.1802Z" fill="white"/>
<path d="M103.016 16.571C103.016 18.9626 101.125 19.9814 99.0825 19.9814C98.2572 20.0636 97.4285 19.8717 96.7035 19.4306C95.9785 18.9894 95.3905 18.3193 95.0156 17.5068L97.4737 15.9681C97.5731 16.3436 97.7867 16.6703 98.0788 16.8936C98.3709 17.1169 98.7239 17.2232 99.0787 17.1949C99.7589 17.1949 100.1 16.9659 100.1 16.551C100.1 15.4062 95.4465 16.0101 95.4465 12.4127C95.4465 10.145 97.1871 9.00228 99.1541 9.00228C99.8936 8.97655 100.626 9.16938 101.274 9.56066C101.923 9.95194 102.464 10.5273 102.842 11.2269L100.421 12.6616C100.315 12.3893 100.138 12.1573 99.9128 11.9946C99.6875 11.8319 99.4237 11.7457 99.1541 11.7468C98.6622 11.7468 98.3593 11.9569 98.3593 12.3287C98.3631 13.5145 103.016 12.7236 103.016 16.571Z" fill="white"/>
<path d="M115.016 10V19.7202H111.889V18.8061C111.529 19.2094 111.071 19.5272 110.553 19.7334C110.035 19.9396 109.472 20.0283 108.91 19.9921C106.805 19.9921 105.016 18.593 105.016 15.9666V10H108.142V15.5395C108.116 15.771 108.144 16.0051 108.225 16.2253C108.305 16.4456 108.437 16.6469 108.609 16.8151C108.782 16.9833 108.991 17.1144 109.224 17.1993C109.456 17.2843 109.705 17.3209 109.955 17.3068C111.101 17.3068 111.892 16.6853 111.892 15.3049V10.0029L115.016 10Z" fill="white"/>
<path d="M131.016 13.0335V19H128.015V13.2858C128.015 12.3139 127.536 11.6925 126.576 11.6925C125.576 11.6925 125.015 12.3728 125.015 13.5194V19H122.016V13.2858C122.016 12.3139 121.536 11.6925 120.576 11.6925C119.575 11.6925 119.016 12.3728 119.016 13.5194V19H116.016V9.28158H119.016V10.1749C119.327 9.77858 119.735 9.4643 120.203 9.26075C120.671 9.0572 121.184 8.97088 121.696 9.00966C122.209 8.98526 122.72 9.09053 123.179 9.31521C123.638 9.53989 124.03 9.87632 124.315 10.2917C124.648 9.85715 125.088 9.51161 125.595 9.28741C126.102 9.0632 126.66 8.96764 127.215 9.00966C129.511 9.01064 131.016 10.6039 131.016 13.0335Z" fill="white"/>
<path d="M133.016 9C134.12 9 135.016 8.10457 135.016 7C135.016 5.89543 134.12 5 133.016 5C131.911 5 131.016 5.89543 131.016 7C131.016 8.10457 131.911 9 133.016 9Z" fill="white"/>
</svg>
