<svg width="55" height="54" viewBox="0 0 55 54" fill="none" xmlns="http://www.w3.org/2000/svg">
<path d="M2.05863 17.8513C4.01312 9.51902 10.519 3.01312 18.8513 1.05863C24.8688 -0.352876 31.1312 -0.352878 37.1487 1.05863C45.481 3.01312 51.9869 9.51903 53.9414 17.8513C55.3529 23.8688 55.3529 30.1312 53.9414 36.1487C51.9869 44.481 45.481 50.9869 37.1487 52.9414C31.1312 54.3529 24.8688 54.3529 18.8513 52.9414C10.519 50.9869 4.01312 44.481 2.05863 36.1487C0.647122 30.1312 0.647123 23.8688 2.05863 17.8513Z" fill="white"/>
<path d="M14.2589 27.659L23.0602 38.7485C25.5931 41.9399 30.4086 41.9399 32.9414 38.7485L41.7427 27.659C43.9916 24.8254 43.9916 20.7991 41.7427 17.9655C38.4506 13.8175 30.8416 15.0495 28.0008 19.5236C25.1601 15.0495 17.551 13.8175 14.2589 17.9655C12.01 20.7991 12.01 24.8254 14.2589 27.659Z" stroke="black" stroke-width="2.57143" stroke-linecap="round" stroke-linejoin="round"/>
<path d="M1.86332 17.8513C3.81781 9.51902 10.3237 3.01312 18.656 1.05863C24.6735 -0.352876 30.9359 -0.352878 36.9534 1.05863C45.2857 3.01312 51.7916 9.51903 53.7461 17.8513C55.1576 23.8688 55.1576 30.1312 53.7461 36.1487C51.7916 44.481 45.2857 50.9869 36.9534 52.9414C30.9359 54.3529 24.6735 54.3529 18.656 52.9414C10.3237 50.9869 3.81781 44.481 1.86332 36.1487C0.45181 30.1312 0.45181 23.8688 1.86332 17.8513Z" fill="white"/>
<path d="M15.2572 30.6731L16.4657 30.3896L15.2572 30.6731ZM15.2572 21.0038L14.0488 20.7204L15.2572 21.0038ZM42.6747 21.0038L41.4662 21.2873L42.6747 21.0038ZM42.6747 30.6731L41.4662 30.3896L42.6747 30.6731ZM33.8006 39.5472L33.5171 38.3387L33.8006 39.5472ZM24.1313 39.5472L24.4148 38.3387L24.1313 39.5472ZM24.1313 12.1297L24.4148 13.3382L24.4148 13.3382L24.1313 12.1297ZM33.8006 12.1297L33.5171 13.3382L33.8006 12.1297ZM16.4246 33.7078L17.5113 33.108L17.1276 32.4128L16.3355 32.4697L16.4246 33.7078ZM21.0966 38.3798L22.3347 38.4689L22.3916 37.6768L21.6964 37.2931L21.0966 38.3798ZM22.8542 21.9779C22.1687 21.9779 21.6129 22.5336 21.6129 23.2192C21.6129 23.9047 22.1687 24.4604 22.8542 24.4604V21.9779ZM28.0928 24.4604C28.7784 24.4604 29.3341 23.9047 29.3341 23.2192C29.3341 22.5336 28.7784 21.9779 28.0928 21.9779V24.4604ZM24.6004 27.2165C23.9149 27.2165 23.3592 27.7723 23.3592 28.4578C23.3592 29.1433 23.9149 29.699 24.6004 29.699V27.2165ZM33.3315 29.699C34.017 29.699 34.5727 29.1433 34.5727 28.4578C34.5727 27.7723 34.017 27.2165 33.3315 27.2165V29.699ZM16.4657 30.3896C15.7635 27.3962 15.7635 24.2808 16.4657 21.2873L14.0488 20.7204C13.2591 24.0867 13.2591 27.5902 14.0488 30.9566L16.4657 30.3896ZM41.4662 21.2873C42.1684 24.2808 42.1684 27.3962 41.4662 30.3896L43.8831 30.9566C44.6728 27.5902 44.6728 24.0867 43.8831 20.7204L41.4662 21.2873ZM33.5171 38.3387C30.5236 39.0409 27.4083 39.0409 24.4148 38.3387L23.8478 40.7556C27.2142 41.5453 30.7177 41.5453 34.084 40.7556L33.5171 38.3387ZM24.4148 13.3382C27.4083 12.636 30.5236 12.636 33.5171 13.3382L34.084 10.9213C30.7177 10.1316 27.2142 10.1316 23.8478 10.9213L24.4148 13.3382ZM24.4148 38.3387C20.4705 37.4135 17.3909 34.3339 16.4657 30.3896L14.0488 30.9566C15.1893 35.8187 18.9857 39.6151 23.8478 40.7556L24.4148 38.3387ZM34.084 40.7556C38.9462 39.6151 42.7426 35.8187 43.8831 30.9566L41.4662 30.3896C40.541 34.3339 37.4613 37.4135 33.5171 38.3387L34.084 40.7556ZM33.5171 13.3382C37.4613 14.2634 40.541 17.3431 41.4662 21.2873L43.8831 20.7204C42.7426 15.8582 38.9462 12.0618 34.084 10.9213L33.5171 13.3382ZM23.8478 10.9213C18.9857 12.0618 15.1893 15.8582 14.0488 20.7204L16.4657 21.2873C17.3909 17.3431 20.4705 14.2634 24.4148 13.3382L23.8478 10.9213ZM16.3355 32.4697C13.4283 32.6789 11.1357 35.1021 11.1357 38.0619H13.6182C13.6182 36.4135 14.8957 35.0623 16.5137 34.9459L16.3355 32.4697ZM11.1357 38.0619C11.1357 41.1585 13.6459 43.6687 16.7425 43.6687V41.1862C15.017 41.1862 13.6182 39.7874 13.6182 38.0619H11.1357ZM16.7425 43.6687C19.7023 43.6687 22.1255 41.3761 22.3347 38.4689L19.8585 38.2907C19.7421 39.9088 18.3909 41.1862 16.7425 41.1862V43.6687ZM21.6964 37.2931C19.9358 36.3212 18.4832 34.8686 17.5113 33.108L15.3379 34.3076C16.536 36.4782 18.3262 38.2684 20.4968 39.4665L21.6964 37.2931ZM22.8542 24.4604H28.0928V21.9779H22.8542V24.4604ZM24.6004 29.699H33.3315V27.2165H24.6004V29.699Z" fill="black"/>
</svg>
