<svg width="256" height="256" viewBox="0 0 256 256" fill="none" xmlns="http://www.w3.org/2000/svg">
<rect width="256" height="256" rx="14" fill="black"/>
<path d="M47.881 116.938C79.4105 66.875 176.589 66.875 208.119 116.938C218.627 133.622 218.627 147.005 208.119 163.69C176.589 213.752 79.4105 213.752 47.881 163.69C37.373 147.005 37.373 133.622 47.881 116.938Z" fill="#2EE6CB"/>
<path d="M156.782 141.452C156.782 155.136 144.958 166.614 129.886 166.614V174.614C148.934 174.614 164.782 159.984 164.782 141.452H156.782ZM129.886 166.614C114.815 166.614 103 155.137 103 141.452H95C95 159.982 110.836 174.614 129.886 174.614V166.614ZM103 141.452C103 127.757 114.816 116.281 129.886 116.281V108.281C110.836 108.281 95 122.914 95 141.452H103ZM129.886 116.281C144.957 116.281 156.782 127.759 156.782 141.452H164.782C164.782 122.912 148.935 108.281 129.886 108.281V116.281Z" fill="black"/>
<rect x="123.266" y="32" width="13.5385" height="128.615" rx="6.76923" fill="#2EE6CB"/>
<rect x="175.375" y="59.0625" width="13.5385" height="115.077" rx="6.76923" fill="#2EE6CB"/>
<rect x="67.0781" y="59.0625" width="13.5385" height="115.077" rx="6.76923" fill="#2EE6CB"/>
</svg>
