<svg width="32" height="32" viewBox="0 0 32 32" fill="none" xmlns="http://www.w3.org/2000/svg">
<path d="M24 15.9755C23.9994 15.7485 23.9507 15.5243 23.8571 15.3175C23.7634 15.1106 23.627 14.926 23.4568 14.7757L15.9963 8.21713C15.8036 8.05956 15.5572 7.98287 15.309 8.00322C15.0608 8.02357 14.8301 8.13938 14.6657 8.32624C14.5013 8.5131 14.416 8.75641 14.4277 9.0049C14.4393 9.25338 14.5471 9.48764 14.7283 9.65829L20.4923 14.7243C20.5176 14.7467 20.5355 14.7763 20.5436 14.809C20.5517 14.8418 20.5496 14.8763 20.5377 14.9078C20.5258 14.9394 20.5045 14.9666 20.4767 14.9859C20.449 15.0051 20.416 15.0155 20.3822 15.0156H8.961C8.70613 15.0156 8.46169 15.1168 8.28147 15.2968C8.10125 15.4768 8 15.7209 8 15.9755C8 16.2301 8.10125 16.4742 8.28147 16.6542C8.46169 16.8343 8.70613 16.9354 8.961 16.9354H20.3802C20.414 16.9357 20.4469 16.9462 20.4746 16.9656C20.5023 16.9849 20.5235 17.0121 20.5354 17.0437C20.5473 17.0753 20.5494 17.1097 20.5413 17.1425C20.5333 17.1753 20.5155 17.2048 20.4903 17.2274L14.7263 22.2934C14.6255 22.3747 14.5422 22.4756 14.4815 22.5899C14.4207 22.7042 14.3837 22.8296 14.3727 22.9586C14.3616 23.0875 14.3769 23.2174 14.4174 23.3403C14.4579 23.4632 14.5229 23.5767 14.6085 23.6739C14.694 23.7711 14.7984 23.85 14.9153 23.9059C15.0321 23.9618 15.1591 23.9935 15.2886 23.9991C15.4181 24.0047 15.5473 23.9841 15.6686 23.9385C15.7899 23.8929 15.9007 23.8233 15.9943 23.7339L23.4561 17.1754C23.6265 17.0251 23.7631 16.8405 23.8569 16.6337C23.9506 16.4269 23.9994 16.2025 24 15.9755V15.9755Z" fill="white"/>
</svg>
