<svg width="42" height="42" viewBox="0 0 42 42" fill="none" xmlns="http://www.w3.org/2000/svg">
<path d="M0.823381 13.8843C2.34354 7.40368 7.40369 2.34353 13.8843 0.82338C18.5646 -0.274459 23.4354 -0.27446 28.1157 0.823378C34.5963 2.34353 39.6565 7.40369 41.1766 13.8843C42.2745 18.5646 42.2745 23.4354 41.1766 28.1157C39.6565 34.5963 34.5963 39.6565 28.1157 41.1766C23.4354 42.2745 18.5646 42.2745 13.8843 41.1766C7.40369 39.6565 2.34354 34.5963 0.823381 28.1157C-0.27446 23.4354 -0.27446 18.5646 0.823381 13.8843Z" fill="url(#paint0_linear_425_3532)"/>
<path d="M30.7216 12.6923C31.104 12.2938 31.0908 11.6607 30.6923 11.2784C30.2938 10.896 29.6607 10.9092 29.2784 11.3077L30.7216 12.6923ZM12.0005 29.7398C12.0119 30.292 12.4688 30.7303 13.021 30.7189L22.019 30.5324C22.5712 30.521 23.0096 30.0641 22.9981 29.5119C22.9867 28.9598 22.5298 28.5214 21.9776 28.5329L13.9793 28.6986L13.8136 20.7003C13.8022 20.1481 13.3453 19.7098 12.7931 19.7212C12.2409 19.7327 11.8026 20.1896 11.814 20.7417L12.0005 29.7398ZM29.2784 11.3077L12.2787 29.0268L13.7219 30.4114L30.7216 12.6923L29.2784 11.3077Z" fill="black"/>
<defs>
<linearGradient id="paint0_linear_425_3532" x1="42.7332" y1="48.6478" x2="2.60389" y2="6.9997" gradientUnits="userSpaceOnUse">
<stop stop-color="#9BEEE9"/>
<stop offset="1" stop-color="#38DDD3" stop-opacity="0.73"/>
</linearGradient>
</defs>
</svg>
