<svg width="42" height="42" viewBox="0 0 42 42" fill="none" xmlns="http://www.w3.org/2000/svg">
<path d="M0.823381 13.8843C2.34354 7.40368 7.40369 2.34353 13.8843 0.82338C18.5646 -0.274459 23.4354 -0.27446 28.1157 0.823378C34.5963 2.34353 39.6565 7.40369 41.1766 13.8843C42.2745 18.5646 42.2745 23.4354 41.1766 28.1157C39.6565 34.5963 34.5963 39.6565 28.1157 41.1766C23.4354 42.2745 18.5646 42.2745 13.8843 41.1766C7.40369 39.6565 2.34354 34.5963 0.823381 28.1157C-0.27446 23.4354 -0.27446 18.5646 0.823381 13.8843Z" fill="url(#paint0_linear_425_3547)"/>
<path d="M21.3697 30.1546L20.4338 29.8023L21.3697 30.1546ZM11.3283 23.6128L10.352 23.8289L11.3283 23.6128ZM11.3244 17.6101L10.348 17.394L11.3244 17.6101ZM30.7031 17.8802L31.6795 17.6641L31.6795 17.6641L30.7031 17.8802ZM30.7031 23.3248L29.7267 23.1087L29.7267 23.1087L30.7031 23.3248ZM17.8423 31.784L18.2482 30.8701L18.2482 30.8701L17.8423 31.784ZM18.2818 10.3317L18.5231 11.3022L18.5231 11.3022L18.2818 10.3317ZM23.6859 10.3317L23.4446 11.3022L23.6859 10.3317ZM17.7033 31.7223L17.2973 32.6362L17.2973 32.6362L17.7033 31.7223ZM24.1343 10.4432L24.3756 9.47279L24.1343 10.4432ZM30.5986 17.4077L29.6222 17.6238L29.6222 17.6238L30.5986 17.4077ZM18.0194 10.397L17.7781 9.42654L17.7781 9.42654L18.0194 10.397ZM17.1133 16.4041C16.561 16.4041 16.1133 16.8519 16.1133 17.4041C16.1133 17.9564 16.561 18.4041 17.1133 18.4041V16.4041ZM24.2093 18.4041C24.7616 18.4041 25.2093 17.9564 25.2093 17.4041C25.2093 16.8519 24.7616 16.4041 24.2093 16.4041V18.4041ZM17.1133 20.6283C16.561 20.6283 16.1133 21.0761 16.1133 21.6283C16.1133 22.1806 16.561 22.6283 17.1133 22.6283V20.6283ZM21.629 22.6283C22.1812 22.6283 22.629 22.1806 22.629 21.6283C22.629 21.0761 22.1812 20.6283 21.629 20.6283V22.6283ZM18.2607 11.3674L18.5231 11.3022L18.0405 9.36129L17.7781 9.42654L18.2607 11.3674ZM23.4446 11.3022L23.893 11.4137L24.3756 9.47279L23.9273 9.36129L23.4446 11.3022ZM18.2482 30.8701L18.1092 30.8084L17.2973 32.6362L17.4364 32.698L18.2482 30.8701ZM29.6222 17.6238L29.7267 18.0962L31.6795 17.6641L31.575 17.1917L29.6222 17.6238ZM23.5554 28.466H22.3067V30.466H23.5554V28.466ZM22.3067 28.466C21.4338 28.466 20.7193 29.0441 20.4338 29.8023L22.3056 30.507C22.3171 30.4764 22.3319 30.4633 22.3358 30.4604C22.3376 30.459 22.3362 30.4605 22.3307 30.4623C22.3249 30.4643 22.3165 30.466 22.3067 30.466V28.466ZM12.3047 23.3968C11.9008 21.5711 11.8974 19.6492 12.3008 17.8261L10.348 17.394C9.88107 19.5043 9.88563 21.7212 10.352 23.8289L12.3047 23.3968ZM29.7267 18.0962C30.0911 19.7431 30.0911 21.4619 29.7267 23.1087L31.6795 23.5408C32.1068 21.6093 32.1068 19.5956 31.6795 17.6641L29.7267 18.0962ZM17.4364 32.698C19.4076 33.5735 21.5629 32.4796 22.3056 30.507L20.4338 29.8023C20.0439 30.8379 19.0372 31.2206 18.2482 30.8701L17.4364 32.698ZM18.5231 11.3022C20.1432 10.8993 21.8245 10.8993 23.4446 11.3022L23.9273 9.36129C21.9902 8.87957 19.9775 8.87957 18.0405 9.36129L18.5231 11.3022ZM18.1092 30.8084C15.2365 29.5325 13.0509 26.769 12.3047 23.3968L10.352 23.8289C11.2223 27.7624 13.7915 31.0791 17.2973 32.6362L18.1092 30.8084ZM29.7267 23.1087C29.0183 26.3104 26.4268 28.466 23.5554 28.466V30.466C27.4764 30.466 30.7936 27.545 31.6795 23.5408L29.7267 23.1087ZM23.893 11.4137C26.6801 12.1068 28.9275 14.4838 29.6222 17.6238L31.575 17.1917C30.733 13.3863 27.9717 10.3671 24.3756 9.47279L23.893 11.4137ZM17.7781 9.42654C14.068 10.3492 11.2174 13.4646 10.348 17.394L12.3008 17.8261C13.0229 14.5622 15.3597 12.0889 18.2607 11.3674L17.7781 9.42654ZM17.1133 18.4041H24.2093V16.4041H17.1133V18.4041ZM17.1133 22.6283H21.629V20.6283H17.1133V22.6283Z" fill="black"/>
<defs>
<linearGradient id="paint0_linear_425_3547" x1="42.7332" y1="48.6478" x2="2.60389" y2="6.9997" gradientUnits="userSpaceOnUse">
<stop stop-color="#9BEEE9"/>
<stop offset="1" stop-color="#38DDD3" stop-opacity="0.73"/>
</linearGradient>
</defs>
</svg>
