<svg width="24" height="24" viewBox="0 0 24 24" fill="none" xmlns="http://www.w3.org/2000/svg">
<path d="M21 11.9839C20.9994 11.7424 20.9476 11.5039 20.8481 11.2839C20.7486 11.0639 20.6037 10.8675 20.4228 10.7075L12.4961 3.73097C12.2913 3.56336 12.0295 3.48178 11.7658 3.50343C11.502 3.52508 11.257 3.64827 11.0823 3.84703C10.9077 4.0458 10.817 4.30462 10.8294 4.56895C10.8418 4.83327 10.9563 5.08246 11.1489 5.26399L17.2731 10.6529C17.3 10.6768 17.319 10.7082 17.3276 10.743C17.3362 10.7779 17.334 10.8146 17.3213 10.8481C17.3086 10.8817 17.286 10.9107 17.2565 10.9312C17.227 10.9516 17.192 10.9627 17.1561 10.9628H5.02106C4.75026 10.9628 4.49055 11.0704 4.29906 11.2619C4.10758 11.4533 4 11.7131 4 11.9839C4 12.2547 4.10758 12.5144 4.29906 12.7059C4.49055 12.8973 4.75026 13.0049 5.02106 13.0049H17.154C17.1899 13.0053 17.2248 13.0165 17.2542 13.037C17.2837 13.0576 17.3062 13.0866 17.3188 13.1202C17.3315 13.1537 17.3337 13.1904 17.3252 13.2252C17.3166 13.2601 17.2977 13.2916 17.271 13.3155L11.1467 18.7044C11.0396 18.791 10.9511 18.8982 10.8865 19.0198C10.822 19.1414 10.7826 19.2748 10.7709 19.412C10.7592 19.5492 10.7754 19.6873 10.8185 19.8181C10.8615 19.9489 10.9306 20.0696 11.0215 20.173C11.1124 20.2764 11.2233 20.3603 11.3475 20.4198C11.4717 20.4792 11.6066 20.5129 11.7441 20.5189C11.8817 20.5248 12.019 20.5029 12.1479 20.4544C12.2767 20.4059 12.3945 20.3319 12.494 20.2368L20.4221 13.2602C20.6032 13.1004 20.7483 12.904 20.8479 12.684C20.9475 12.464 20.9994 12.2254 21 11.9839V11.9839Z" fill="#2D343A"/>
</svg>
