<svg width="42" height="42" viewBox="0 0 42 42" fill="none" xmlns="http://www.w3.org/2000/svg">
<path d="M0.823381 13.8843C2.34354 7.40368 7.40369 2.34353 13.8843 0.82338C18.5646 -0.274459 23.4354 -0.27446 28.1157 0.823378C34.5963 2.34353 39.6565 7.40369 41.1766 13.8843C42.2745 18.5646 42.2745 23.4354 41.1766 28.1157C39.6565 34.5963 34.5963 39.6565 28.1157 41.1766C23.4354 42.2745 18.5646 42.2745 13.8843 41.1766C7.40369 39.6565 2.34354 34.5963 0.823381 28.1157C-0.27446 23.4354 -0.27446 18.5646 0.823381 13.8843Z" fill="url(#paint0_linear_425_3542)"/>
<path d="M11 29.6004C11 26.9452 13.0246 24.6835 15.7762 24.265C19.2368 23.7387 22.7632 23.7387 26.2238 24.265C28.9754 24.6835 31 26.9452 31 29.6004V30.1883C31 31.7412 29.679 33 28.0494 33H13.9506C12.321 33 11 31.7412 11 30.1883V29.6004Z" stroke="black" stroke-width="2"/>
<path d="M26.8333 14.5588C26.8333 17.6289 24.2217 20.1176 21 20.1176C17.7783 20.1176 15.1667 17.6289 15.1667 14.5588C15.1667 11.4888 17.7783 9 21 9C24.2217 9 26.8333 11.4888 26.8333 14.5588Z" stroke="black" stroke-width="2"/>
<defs>
<linearGradient id="paint0_linear_425_3542" x1="42.7332" y1="48.6478" x2="2.60389" y2="6.9997" gradientUnits="userSpaceOnUse">
<stop stop-color="#9BEEE9"/>
<stop offset="1" stop-color="#38DDD3" stop-opacity="0.73"/>
</linearGradient>
</defs>
</svg>
