<svg width="42" height="42" viewBox="0 0 42 42" fill="none" xmlns="http://www.w3.org/2000/svg">
<path d="M0.823381 13.8843C2.34354 7.40368 7.40369 2.34353 13.8843 0.82338C18.5646 -0.274459 23.4354 -0.27446 28.1157 0.823378C34.5963 2.34353 39.6565 7.40369 41.1766 13.8843C42.2745 18.5646 42.2745 23.4354 41.1766 28.1157C39.6565 34.5963 34.5963 39.6565 28.1157 41.1766C23.4354 42.2745 18.5646 42.2745 13.8843 41.1766C7.40369 39.6565 2.34354 34.5963 0.823381 28.1157C-0.27446 23.4354 -0.27446 18.5646 0.823381 13.8843Z" fill="url(#paint0_linear_425_3537)"/>
<path d="M28 28.2674V16.845C28 14.6415 26.4253 12.7449 24.2391 12.3152C22.1006 11.8949 19.8994 11.8949 17.7609 12.3152C15.5747 12.7449 14 14.6415 14 16.845V28.2674C14 29.6038 15.4675 30.4355 16.6342 29.7604L19.8211 27.9159C20.5492 27.4945 21.4508 27.4945 22.1789 27.9159L25.3658 29.7604C26.5325 30.4355 28 29.6038 28 28.2674Z" stroke="black" stroke-width="2" stroke-linecap="round" stroke-linejoin="round"/>
<defs>
<linearGradient id="paint0_linear_425_3537" x1="42.7332" y1="48.6478" x2="2.60389" y2="6.9997" gradientUnits="userSpaceOnUse">
<stop stop-color="#9BEEE9"/>
<stop offset="1" stop-color="#38DDD3" stop-opacity="0.73"/>
</linearGradient>
</defs>
</svg>
