<?xml version="1.0" encoding="UTF-8" standalone="no"?>
<svg
   width="32"
   height="32"
   viewBox="0 0 32 32"
   fill="none"
   version="1.1"
   id="svg1230"
   sodipodi:docname="favicon.svg"
   inkscape:version="1.1.2 (b8e25be8, 2022-02-05)"
   xmlns:inkscape="http://www.inkscape.org/namespaces/inkscape"
   xmlns:sodipodi="http://sodipodi.sourceforge.net/DTD/sodipodi-0.dtd"
   xmlns="http://www.w3.org/2000/svg"
   xmlns:svg="http://www.w3.org/2000/svg">
  <defs
     id="defs1234" />
  <sodipodi:namedview
     id="namedview1232"
     pagecolor="#ffffff"
     bordercolor="#666666"
     borderopacity="1.0"
     inkscape:pageshadow="2"
     inkscape:pageopacity="0.0"
     inkscape:pagecheckerboard="0"
     showgrid="false"
     inkscape:zoom="13.477232"
     inkscape:cx="0.40809567"
     inkscape:cy="5.750439"
     inkscape:window-width="1296"
     inkscape:window-height="1081"
     inkscape:window-x="0"
     inkscape:window-y="25"
     inkscape:window-maximized="0"
     inkscape:current-layer="g1201" />
  <rect
     width="32"
     height="32"
     rx="3"
     fill="black"
     id="rect1218" />
  <g
     id="g1166"
     transform="matrix(0.04983972,0,0,0.04840323,-19.251151,-6.4156352)"
     style="fill:#ffffff;fill-opacity:1">
    <g
       id="g1201"
       transform="matrix(1.752697,0,0,1.752697,-333.44424,-348.65958)">
      <path
         inkscape:connector-curvature="0"
         class="st0"
         d="m 545.37179,560.0496 c 41.10891,0 81.34317,0 122.07722,0 0,7.49706 0,14.86917 0,22.49119 -48.98083,0 -97.96165,0 -147.31734,0 0,-79.4689 0,-158.93779 0,-238.78155 8.24677,0 16.49355,0 25.24012,0 0,71.97183 0,143.81871 0,216.29036 z"
         id="path24-6-4-9"
         style="fill:#ffffff;fill-opacity:1;stroke-width:1.24951" />
    </g>
  </g>
  <g
     id="g28-8-1-9-3"
     style="fill:#ffffff;fill-opacity:1"
     transform="matrix(0.04068689,0,0,0.03951421,-13.346218,18.572036)" />
</svg>
