<svg width="42" height="42" viewBox="0 0 42 42" fill="none" xmlns="http://www.w3.org/2000/svg">
<path d="M0.823381 13.8843C2.34354 7.40368 7.40369 2.34353 13.8843 0.82338C18.5646 -0.274459 23.4354 -0.27446 28.1157 0.823378C34.5963 2.34353 39.6565 7.40369 41.1766 13.8843C42.2745 18.5646 42.2745 23.4354 41.1766 28.1157C39.6565 34.5963 34.5963 39.6565 28.1157 41.1766C23.4354 42.2745 18.5646 42.2745 13.8843 41.1766C7.40369 39.6565 2.34354 34.5963 0.823381 28.1157C-0.27446 23.4354 -0.27446 18.5646 0.823381 13.8843Z" fill="url(#paint0_linear_425_3557)"/>
<rect x="22" y="14" width="6" height="6" rx="3" stroke="black" stroke-width="2"/>
<path d="M9.4705 25.0661L8.49693 25.2945L9.4705 25.0661ZM9.4705 16.9339L8.49693 16.7055L9.4705 16.9339ZM32.5295 16.9339L31.5559 17.1623L32.5295 16.9339ZM32.5295 25.0661L31.5559 24.8377L32.5295 25.0661ZM25.0661 32.5295L24.8377 31.5559L24.8377 31.5559L25.0661 32.5295ZM16.9339 32.5295L17.1623 31.5559L16.9339 32.5295ZM16.9339 9.4705L17.1623 10.4441L16.9339 9.4705ZM25.0661 9.4705L24.8377 10.4441L25.0661 9.4705ZM10.5837 27.228C10.1932 27.6186 10.1932 28.2517 10.5837 28.6423C10.9742 29.0328 11.6074 29.0328 11.9979 28.6423L10.5837 27.228ZM13.6093 25.6166L12.9022 24.9095L12.9022 24.9095L13.6093 25.6166ZM21.4555 25.6166L20.7484 26.3237L20.7484 26.3237L21.4555 25.6166ZM24.7132 26.996L25.4203 27.7031L25.4203 27.7031L24.7132 26.996ZM26.5345 32.1098C26.9251 32.5004 27.5582 32.5004 27.9487 32.1098C28.3393 31.7193 28.3393 31.0861 27.9487 30.6956L26.5345 32.1098ZM30.8522 27.2745L30.0839 27.9147L30.0839 27.9147L30.8522 27.2745ZM30.6345 28.5753C30.9881 28.9996 31.6186 29.0569 32.0429 28.7034C32.4672 28.3498 32.5245 27.7192 32.1709 27.295L30.6345 28.5753ZM10.4441 24.8377C9.85197 22.3135 9.85197 19.6865 10.4441 17.1623L8.49693 16.7055C7.83436 19.5302 7.83436 22.4698 8.49693 25.2945L10.4441 24.8377ZM31.5559 17.1623C32.148 19.6865 32.148 22.3135 31.5559 24.8377L33.5031 25.2945C34.1656 22.4698 34.1656 19.5302 33.5031 16.7055L31.5559 17.1623ZM24.8377 31.5559C22.3135 32.148 19.6865 32.148 17.1623 31.5559L16.7055 33.5031C19.5302 34.1656 22.4698 34.1656 25.2945 33.5031L24.8377 31.5559ZM17.1623 10.4441C19.6865 9.85197 22.3135 9.85197 24.8377 10.4441L25.2945 8.49693C22.4698 7.83436 19.5302 7.83436 16.7055 8.49693L17.1623 10.4441ZM17.1623 31.5559C13.8288 30.774 11.226 28.1712 10.4441 24.8377L8.49693 25.2945C9.45232 29.3675 12.6326 32.5477 16.7055 33.5031L17.1623 31.5559ZM25.2945 33.5031C29.3675 32.5477 32.5477 29.3675 33.5031 25.2945L31.5559 24.8377C30.774 28.1712 28.1712 30.774 24.8377 31.5559L25.2945 33.5031ZM24.8377 10.4441C28.1712 11.226 30.774 13.8288 31.5559 17.1623L33.5031 16.7055C32.5477 12.6326 29.3675 9.45232 25.2945 8.49693L24.8377 10.4441ZM16.7055 8.49693C12.6325 9.45232 9.45232 12.6325 8.49693 16.7055L10.4441 17.1623C11.226 13.8288 13.8288 11.226 17.1623 10.4441L16.7055 8.49693ZM11.9979 28.6423L14.3164 26.3237L12.9022 24.9095L10.5837 27.228L11.9979 28.6423ZM20.7484 26.3237L23.067 28.6423L24.4812 27.228L22.1626 24.9095L20.7484 26.3237ZM24.4812 28.6423L25.4203 27.7031L24.0061 26.2889L23.067 27.228L24.4812 28.6423ZM23.067 28.6423L26.5345 32.1098L27.9487 30.6956L24.4812 27.228L23.067 28.6423ZM30.0839 27.9147L30.6345 28.5753L32.1709 27.295L31.6204 26.6343L30.0839 27.9147ZM25.4203 27.7031C26.7347 26.3887 28.894 26.4867 30.0839 27.9147L31.6204 26.6343C29.6775 24.3028 26.1521 24.1429 24.0061 26.2889L25.4203 27.7031ZM14.3164 26.3237C16.0926 24.5476 18.9723 24.5476 20.7484 26.3237L22.1626 24.9095C19.6054 22.3523 15.4594 22.3523 12.9022 24.9095L14.3164 26.3237Z" fill="black"/>
<defs>
<linearGradient id="paint0_linear_425_3557" x1="42.7332" y1="48.6478" x2="2.60389" y2="6.9997" gradientUnits="userSpaceOnUse">
<stop stop-color="#9BEEE9"/>
<stop offset="1" stop-color="#38DDD3" stop-opacity="0.73"/>
</linearGradient>
</defs>
</svg>
