<svg width="119" height="27" viewBox="0 0 119 27" fill="none" xmlns="http://www.w3.org/2000/svg">
<path d="M33.9746 7.79972H36.9967V19.6341H33.9746V7.79972ZM38.1955 15.1657C38.1955 12.2388 40.0491 10.4925 42.91 10.4925C45.771 10.4925 47.6245 12.2388 47.6245 15.1657C47.6245 18.0926 45.8113 19.8487 42.91 19.8487C40.0088 19.8487 38.1955 18.1414 38.1955 15.1657ZM44.5923 15.1657C44.5923 13.5559 43.9375 12.6096 42.91 12.6096C41.8825 12.6096 41.2378 13.5852 41.2378 15.1657C41.2378 16.7462 41.8724 17.7023 42.91 17.7023C43.9476 17.7023 44.5923 16.8048 44.5923 15.1755V15.1657ZM48.7629 20.2097H51.6641C51.8022 20.5068 52.0356 20.7527 52.3297 20.911C52.6237 21.0692 52.9627 21.1312 53.2961 21.0878C54.4445 21.0878 55.0489 20.4829 55.0489 19.6048V17.9658H54.9885C54.7477 18.4681 54.357 18.889 53.8667 19.1742C53.3765 19.4594 52.8093 19.5958 52.2383 19.5658C50.0322 19.5658 48.5715 17.9365 48.5715 15.1364C48.5715 12.3364 49.9617 10.5705 52.2786 10.5705C52.8675 10.5481 53.4494 10.7006 53.9463 11.0075C54.4433 11.3144 54.8315 11.7611 55.059 12.2876V12.2876V10.6583H58.0811V19.5365C58.0811 21.6731 56.1369 23 53.2658 23C50.5963 23 48.9341 21.839 48.7629 20.2195V20.2097ZM55.059 15.156C55.059 13.7315 54.384 12.834 53.3162 12.834C52.2484 12.834 51.5936 13.7218 51.5936 15.156C51.5936 16.5901 52.2383 17.3999 53.3162 17.3999C54.3941 17.3999 55.059 16.6096 55.059 15.1657V15.156ZM59.2194 15.156C59.2194 12.2291 61.073 10.4827 63.9339 10.4827C66.7949 10.4827 68.6585 12.2291 68.6585 15.156C68.6585 18.0828 66.8453 19.839 63.9339 19.839C61.0226 19.839 59.2194 18.1414 59.2194 15.1657V15.156ZM65.6163 15.156C65.6163 13.5462 64.9615 12.5998 63.9339 12.5998C62.9064 12.5998 62.3121 13.5852 62.3121 15.1755C62.3121 16.7657 62.9467 17.7121 63.9742 17.7121C65.0018 17.7121 65.6163 16.8048 65.6163 15.1755V15.156ZM69.8069 8.53144C69.799 8.23593 69.8819 7.94479 70.045 7.69494C70.2081 7.44509 70.4442 7.24777 70.7232 7.128C71.0023 7.00823 71.3118 6.97141 71.6125 7.02219C71.9132 7.07298 72.1915 7.20909 72.4123 7.41327C72.633 7.61744 72.7861 7.8805 72.8523 8.16908C72.9185 8.45766 72.8947 8.75877 72.784 9.03424C72.6732 9.30971 72.4806 9.54714 72.2303 9.71642C71.9801 9.88571 71.6836 9.97923 71.3784 9.98513C71.1761 9.99858 70.9732 9.97139 70.7822 9.90524C70.5913 9.83909 70.4166 9.73541 70.269 9.60073C70.1214 9.46605 70.0042 9.30327 69.9247 9.12261C69.8452 8.94196 69.8051 8.74733 69.8069 8.55095V8.53144ZM69.8069 10.6778H72.8291V19.6341H69.8069V10.6778ZM83.7994 15.156C83.7994 18.0828 82.4596 19.7512 80.1628 19.7512C79.5738 19.7878 78.9874 19.6483 78.483 19.3517C77.9785 19.0551 77.5803 18.6156 77.3421 18.0926H77.2817V22.5024H74.2595V10.6583H77.2817V12.2583H77.3421C77.5692 11.7267 77.9598 11.2758 78.4609 10.9668C78.962 10.6578 79.5492 10.5058 80.1426 10.5315C82.4596 10.5705 83.8397 12.2486 83.8397 15.1755L83.7994 15.156ZM80.7773 15.156C80.7773 13.7315 80.1023 12.8242 79.0446 12.8242C77.9868 12.8242 77.3119 13.7413 77.3018 15.156C77.2917 16.5706 77.9868 17.4779 79.0446 17.4779C80.1023 17.4779 80.7773 16.5901 80.7773 15.1755V15.156ZM88.9874 10.4729C91.4957 10.4729 93.0169 11.6242 93.0874 13.4681H90.3372C90.3372 12.834 89.7933 12.4339 88.9571 12.4339C88.121 12.4339 87.7483 12.7462 87.7483 13.2047C87.7483 13.6632 88.0807 13.8096 88.7557 13.9462L90.6898 14.3267C92.5333 14.7072 93.3191 15.4291 93.3191 16.7852C93.3191 18.6389 91.5763 19.8292 89.0075 19.8292C86.4387 19.8292 84.7564 18.6389 84.6254 16.8145H87.5367C87.6274 17.4779 88.1714 17.8682 89.0579 17.8682C89.9444 17.8682 90.3473 17.5853 90.3473 17.117C90.3473 16.6487 90.0653 16.5511 89.3399 16.4048L87.5972 16.0438C85.794 15.6828 84.8471 14.7559 84.8471 13.3901C84.8672 11.6339 86.4891 10.4925 88.9874 10.4925V10.4729ZM103.403 19.6146H100.492V17.9462H100.431C100.271 18.5064 99.9181 18.9966 99.4306 19.3356C98.9432 19.6746 98.3507 19.8419 97.7515 19.8097C97.2924 19.835 96.833 19.7645 96.4043 19.6031C95.9757 19.4416 95.5879 19.193 95.267 18.8739C94.9461 18.5548 94.6997 18.1727 94.5444 17.7535C94.3891 17.3343 94.3285 16.8876 94.3667 16.4438V10.6583H97.3889V15.7706C97.3889 16.834 97.953 17.3999 98.8899 17.3999C99.1095 17.4003 99.3268 17.3553 99.527 17.2678C99.7273 17.1802 99.9059 17.0523 100.051 16.8924C100.196 16.7326 100.304 16.5446 100.368 16.341C100.432 16.1374 100.45 15.923 100.421 15.7121V10.6583H103.443L103.403 19.6146ZM104.864 10.6583H107.785V12.3852H107.845C108.006 11.8325 108.351 11.3468 108.827 11.0044C109.302 10.6619 109.882 10.4818 110.475 10.4925C111.078 10.4457 111.677 10.6205 112.153 10.982C112.629 11.3436 112.947 11.8654 113.043 12.4437H113.104C113.287 11.8593 113.665 11.3503 114.179 10.997C114.694 10.6437 115.315 10.4662 115.945 10.4925C116.356 10.4791 116.765 10.5496 117.146 10.6994C117.527 10.8493 117.871 11.0751 118.156 11.3621C118.441 11.6492 118.661 11.9912 118.8 12.3658C118.94 12.7403 118.997 13.1392 118.967 13.5364V19.6341H115.945V14.3169C115.945 13.3413 115.491 12.8925 114.645 12.8925C114.457 12.8909 114.27 12.9286 114.097 13.003C113.925 13.0773 113.771 13.1866 113.646 13.3234C113.521 13.4603 113.427 13.6215 113.372 13.7963C113.317 13.971 113.301 14.1552 113.326 14.3364V19.6341H110.455V14.2779C110.455 13.3803 110.001 12.8925 109.175 12.8925C108.984 12.8926 108.796 12.9318 108.622 13.0076C108.448 13.0835 108.292 13.1942 108.166 13.3325C108.039 13.4708 107.944 13.6335 107.887 13.8099C107.83 13.9863 107.813 14.1724 107.835 14.3559V19.6341H104.813L104.864 10.6583Z" fill="white"/>
<path d="M25.8853 8.15458C25.3788 6.99614 24.7085 5.91656 23.8948 4.94897C22.692 3.47592 21.191 2.27437 19.4905 1.4234C17.79 0.57243 15.9287 0.0913389 14.0289 0.0117879C12.1292 -0.0677631 10.2341 0.256028 8.46849 0.961854C6.70286 1.66768 5.10669 2.73954 3.78502 4.10688C2.46336 5.47422 1.44616 7.10604 0.800397 8.89494C0.154629 10.6838 -0.105075 12.5893 0.0383814 14.4858C0.181838 16.3823 0.725201 18.227 1.63271 19.8983C2.54021 21.5696 3.79128 23.0298 5.30358 24.1826C6.27395 24.9372 7.34618 25.5505 8.48838 26.0045C10.0898 26.6609 11.8036 26.999 13.5343 27C17.1066 26.9921 20.5301 25.5677 23.0543 23.0391C25.5785 20.5105 26.9974 17.0839 27 13.5105C27.0026 11.6673 26.6231 9.84361 25.8853 8.15458V8.15458ZM13.5243 2.74884C15.0785 2.74867 16.6138 3.08845 18.0229 3.74437V3.74437C17.6793 3.89287 17.318 3.9966 16.948 4.05299C15.7304 4.22929 14.6025 4.79474 13.7325 5.66492C12.8626 6.53511 12.2973 7.66338 12.121 8.88132C12.0437 9.56437 11.7331 10.1998 11.2417 10.6804C10.7504 11.161 10.1083 11.4574 9.42391 11.5195C8.20632 11.6958 7.07838 12.2612 6.20844 13.1314C5.33849 14.0016 4.77321 15.1299 4.59696 16.3478C4.53728 16.9973 4.26026 17.6076 3.81071 18.08V18.08C3.03507 16.4407 2.68663 14.6316 2.79782 12.8214C2.90901 11.0111 3.47621 9.25832 4.44664 7.72625C5.41708 6.19418 6.7592 4.93256 8.34812 4.05881C9.93703 3.18506 11.7211 2.72758 13.5343 2.72893L13.5243 2.74884ZM5.29363 20.4793C5.41306 20.3698 5.53249 20.2702 5.65192 20.1507C6.53735 19.292 7.10569 18.1585 7.26422 16.9352C7.3285 16.2475 7.63545 15.6052 8.13009 15.1233C8.60606 14.6277 9.24673 14.3232 9.93149 14.2671C11.1491 14.0908 12.277 13.5254 13.147 12.6552C14.0169 11.785 14.5822 10.6568 14.7584 9.43882C14.8015 8.71956 15.1101 8.04193 15.6243 7.53735C16.112 7.05138 16.7588 6.75795 17.4456 6.71106C18.5642 6.55711 19.6074 6.0597 20.4314 5.28745C21.3695 6.06603 22.1644 7.00265 22.7801 8.05503C22.7423 8.10615 22.6989 8.15289 22.6508 8.1944C22.1757 8.69435 21.5359 9.00552 20.8494 9.07047C19.6305 9.2437 18.5009 9.80814 17.6304 10.6789C16.7599 11.5496 16.1956 12.6796 16.0224 13.8988C15.9523 14.5842 15.6474 15.2242 15.1595 15.7104C14.6716 16.1967 14.0306 16.4992 13.3452 16.5668C12.124 16.7418 10.9919 17.3061 10.1169 18.1759C9.24193 19.0458 8.67081 20.1748 8.48838 21.3952C8.43482 21.8817 8.26777 22.3489 8.0007 22.759C6.97958 22.1526 6.06504 21.3824 5.29363 20.4793V20.4793ZM13.5243 24.322C12.5144 24.3231 11.5094 24.1824 10.5386 23.9039C10.8707 23.2847 11.0865 22.6099 11.1755 21.9128C11.2453 21.229 11.5487 20.5902 12.0346 20.1041C12.5205 19.6181 13.1592 19.3146 13.8428 19.2448C15.0622 19.0705 16.1924 18.5059 17.0643 17.6356C17.9362 16.7652 18.5029 15.6359 18.6797 14.4165C18.7495 13.7327 19.0529 13.0938 19.5388 12.6078C20.0247 12.1217 20.6634 11.8182 21.347 11.7485C22.2646 11.6291 23.1392 11.2873 23.8948 10.7529C24.3144 12.3437 24.3641 14.0094 24.0401 15.6224C23.7161 17.2354 23.0271 18.7527 22.0259 20.0579C21.0246 21.3632 19.7378 22.4216 18.2641 23.1522C16.7904 23.8827 15.169 24.2659 13.5243 24.2722V24.322Z" fill="white"/>
</svg>
