<svg width="136" height="27" viewBox="0 0 136 27" fill="none" xmlns="http://www.w3.org/2000/svg">
<path d="M20.7384 12.0773C20.3602 12.4576 20.0706 12.9165 19.8902 13.4214C19.7097 13.9263 19.643 14.4647 19.6946 14.9984L19.6766 14.9804C19.7297 15.6086 19.6449 16.2407 19.4283 16.8328C19.2116 17.4248 18.8683 17.9625 18.4223 18.4082C17.9763 18.854 17.4383 19.1971 16.8459 19.4136C16.2535 19.6301 15.621 19.7148 14.9925 19.6617L15.0104 19.6797C14.2586 19.6098 13.5035 19.7733 12.848 20.1479C12.1926 20.5226 11.6687 21.0902 11.3478 21.7733C11.027 22.4564 10.9248 23.2218 11.0551 23.9651C11.1854 24.7084 11.542 25.3935 12.0762 25.9268C12.6103 26.4602 13.2961 26.8159 14.04 26.9455C14.7839 27.0751 15.5496 26.9722 16.2329 26.651C16.9161 26.3297 17.4836 25.8056 17.8579 25.1502C18.2322 24.4948 18.3951 23.74 18.3244 22.9887L18.3434 23.0067C18.2904 22.3785 18.3751 21.7464 18.5917 21.1543C18.8084 20.5623 19.1517 20.0246 19.5977 19.5789C20.0437 19.1331 20.5817 18.7901 21.1741 18.5735C21.7665 18.357 22.399 18.2723 23.0275 18.3254L23.0086 18.3074C23.6227 18.3626 24.2409 18.262 24.8058 18.0148C25.3707 17.7677 25.864 17.3821 26.24 16.8937C26.6161 16.4052 26.8626 15.8299 26.9569 15.2208C27.0512 14.6118 26.9901 13.9889 26.7794 13.4097C26.5686 12.8306 26.215 12.314 25.7513 11.9078C25.2875 11.5016 24.7287 11.219 24.1266 11.0861C23.5244 10.9532 22.8985 10.9744 22.3067 11.1477C21.715 11.321 21.1765 11.6407 20.7414 12.0773H20.7384Z" fill="#98C9C0" fill-opacity="0.31"/>
<path d="M13.1861 17.2049L13.1669 17.1867C13.7081 17.2413 14.2547 17.1748 14.7671 16.9922C15.2796 16.8096 15.745 16.5154 16.1298 16.1308C16.5146 15.7463 16.8091 15.281 16.9921 14.7687C17.1751 14.2563 17.2419 13.7097 17.1878 13.1683L17.207 13.1865C17.1533 12.5496 17.2391 11.9087 17.4586 11.3084C17.6781 10.7082 18.0259 10.163 18.4778 9.71107C18.9297 9.25912 19.4748 8.91125 20.075 8.69173C20.6752 8.47221 21.3161 8.38633 21.9529 8.44009L21.9337 8.42189C22.6955 8.49344 23.4608 8.32822 24.1253 7.94877C24.7897 7.56931 25.321 6.99409 25.6466 6.30157C25.9721 5.60905 26.0762 4.83295 25.9445 4.07911C25.8129 3.32528 25.4519 2.63041 24.9108 2.0893C24.3698 1.54819 23.675 1.18717 22.9213 1.05548C22.1675 0.923797 21.3915 1.02786 20.6991 1.35347C20.0066 1.67909 19.4315 2.21041 19.0521 2.87495C18.6727 3.5395 18.5075 4.30492 18.579 5.06682L18.5608 5.04761C18.6147 5.68454 18.529 6.32556 18.3096 6.92592C18.0901 7.52627 17.7423 8.07148 17.2904 8.52347C16.8384 8.97546 16.2933 9.32333 15.693 9.54279C15.0927 9.76224 14.4518 9.84799 13.8149 9.79405L13.8331 9.81327C13.2919 9.75872 12.7453 9.82516 12.2329 10.0078C11.7204 10.1904 11.255 10.4846 10.8702 10.8692C10.4854 11.2537 10.1909 11.719 10.0079 12.2313C9.82491 12.7437 9.75807 13.2903 9.8122 13.8317L9.794 13.8135C9.84758 14.4503 9.76159 15.0912 9.54203 15.6914C9.32248 16.2916 8.97464 16.8366 8.52278 17.2885C8.07093 17.7404 7.52593 18.0883 6.92582 18.3079C6.3257 18.5275 5.6849 18.6135 5.04813 18.5599L5.06633 18.5781C4.30452 18.5066 3.53919 18.6718 2.87473 19.0512C2.21026 19.4307 1.67901 20.0059 1.35343 20.6984C1.02786 21.3909 0.923805 22.1671 1.05547 22.9209C1.18714 23.6747 1.54812 24.3696 2.08917 24.9107C2.63022 25.4518 3.325 25.8128 4.07874 25.9445C4.83249 26.0762 5.6085 25.9721 6.30093 25.6465C6.99337 25.3209 7.56852 24.7896 7.94793 24.125C8.32733 23.4605 8.49254 22.6951 8.42099 21.9332L8.4402 21.9514C8.38645 21.3145 8.47231 20.6735 8.69181 20.0733C8.9113 19.473 9.25913 18.9279 9.71103 18.4759C10.1629 18.024 10.708 17.6761 11.3082 17.4566C11.9084 17.2371 12.5493 17.1512 13.1861 17.2049V17.2049Z" fill="#98C9C0" fill-opacity="0.31"/>
<path d="M6.25782 14.9225C6.63611 14.5422 6.92574 14.0832 7.10603 13.5782C7.28633 13.0732 7.35283 12.5347 7.30081 12.001L7.31977 12.0189C7.26667 11.3905 7.35147 10.7581 7.56826 10.1659C7.78505 9.57358 8.1286 9.03575 8.57493 8.58991C9.02125 8.14407 9.55958 7.80097 10.1523 7.58457C10.7451 7.36817 11.3779 7.28369 12.0067 7.33703L11.9878 7.31908C12.7395 7.38946 13.4947 7.2264 14.1504 6.85213C14.806 6.47786 15.3302 5.9106 15.6514 5.2277C15.9726 4.54481 16.0752 3.77953 15.9452 3.03622C15.8152 2.29292 15.459 1.60776 14.9251 1.0742C14.3912 0.540636 13.7056 0.184636 12.9618 0.054747C12.218 -0.0751416 11.4522 0.0274045 10.7689 0.3484C10.0856 0.669395 9.51793 1.19321 9.14341 1.84842C8.7689 2.50363 8.60573 3.25834 8.67616 4.00962L8.65819 3.99167C8.71126 4.6199 8.62649 5.25213 8.40982 5.84425C8.19314 6.43636 7.84977 6.97408 7.40368 7.41989C6.95758 7.86569 6.41951 8.20884 5.82701 8.42537C5.23451 8.64191 4.60187 8.72661 3.97323 8.67358L3.9912 8.69154C3.37695 8.63649 2.75874 8.73728 2.19385 8.98456C1.62896 9.23184 1.13566 9.61761 0.75968 10.1061C0.383695 10.5947 0.137183 11.1701 0.0429896 11.7792C-0.051204 12.3883 0.00996702 13.0113 0.220835 13.5904C0.431703 14.1696 0.785445 14.6862 1.24928 15.0924C1.71312 15.4985 2.27204 15.7811 2.87425 15.9139C3.47647 16.0468 4.10249 16.0255 4.69431 15.8522C5.28613 15.6789 5.8246 15.3591 6.25982 14.9225H6.25782Z" fill="#98C9C0" fill-opacity="0.31"/>
<path d="M37.0537 5H40.0537V20H37.0537V5Z" fill="#98C9C0" fill-opacity="0.31"/>
<path d="M42.0539 14.5218C42.0495 13.4331 42.3684 12.3677 42.97 11.4603C43.5717 10.553 44.4292 9.84464 45.4338 9.42499C46.4384 9.00535 47.5449 8.89329 48.6132 9.10301C49.6816 9.31273 50.6636 9.83479 51.435 10.6031C52.2064 11.3714 52.7324 12.3513 52.9464 13.4187C53.1604 14.4862 53.0528 15.5932 52.6372 16.5994C52.2215 17.6056 51.5166 18.4659 50.6117 19.0712C49.7068 19.6765 48.6425 19.9996 47.5538 19.9996C46.8311 20.0079 46.114 19.872 45.4445 19.5999C44.7749 19.3278 44.1663 18.925 43.6542 18.415C43.1421 17.9049 42.7369 17.298 42.4621 16.6295C42.1873 15.9611 42.0485 15.2445 42.0539 14.5218V14.5218ZM49.9406 14.5218C49.9276 14.0526 49.7766 13.5975 49.5064 13.2136C49.2362 12.8297 48.8588 12.534 48.4215 12.3634C47.9841 12.1928 47.5062 12.1549 47.0474 12.2544C46.5886 12.3539 46.1693 12.5865 45.842 12.923C45.5147 13.2595 45.2938 13.6851 45.207 14.1464C45.1202 14.6078 45.1714 15.0845 45.354 15.517C45.5367 15.9494 45.8428 16.3184 46.234 16.5779C46.6253 16.8373 47.0843 16.9757 47.5538 16.9756C47.8753 16.9842 48.1951 16.9261 48.493 16.8049C48.791 16.6838 49.0606 16.5022 49.2848 16.2716C49.5091 16.0411 49.6831 15.7666 49.796 15.4654C49.9088 15.1643 49.9581 14.843 49.9406 14.5218V14.5218Z" fill="#98C9C0" fill-opacity="0.31"/>
<path d="M64.0537 9.29424V19.0661C64.0537 22.5237 61.3756 23.9853 58.6572 23.9853C57.7 24.0574 56.7417 23.8628 55.8872 23.4227C55.0327 22.9826 54.315 22.314 53.813 21.4904L56.4292 19.9674C56.6402 20.3968 56.9764 20.751 57.3929 20.9826C57.8093 21.2143 58.2861 21.3124 58.7594 21.2638C59.0619 21.306 59.3699 21.2791 59.6607 21.1853C59.9516 21.0914 60.2177 20.9329 60.4395 20.7215C60.6612 20.5101 60.8329 20.2512 60.9419 19.9639C61.0508 19.6767 61.0943 19.3684 61.0689 19.062V18.1212C60.7099 18.5635 60.2528 18.915 59.7345 19.1473C59.2161 19.3797 58.6509 19.4865 58.0842 19.4591C56.7356 19.4162 55.4565 18.8467 54.5176 17.8711C53.5787 16.8954 53.0537 15.5902 53.0537 14.2316C53.0537 12.8731 53.5787 11.5679 54.5176 10.5922C55.4565 9.61654 56.7356 9.04702 58.0842 9.0042C58.6509 8.97682 59.2161 9.08358 59.7345 9.31593C60.2528 9.54828 60.7099 9.89975 61.0689 10.3421V9.29216L64.0537 9.29424ZM61.07 14.2332C61.0906 13.7356 60.9628 13.2432 60.7032 12.8194C60.4435 12.3955 60.0638 12.0596 59.6129 11.8549C59.162 11.6501 58.6606 11.586 58.1732 11.6706C57.6858 11.7552 57.2347 11.9848 56.878 12.3297C56.5212 12.6747 56.2752 13.1192 56.1715 13.6062C56.0678 14.0931 56.1112 14.6002 56.2961 15.0621C56.4811 15.524 56.799 15.9196 57.2091 16.198C57.6192 16.4763 58.1027 16.6248 58.5973 16.6242C58.9195 16.6468 59.2428 16.6013 59.5464 16.4905C59.85 16.3796 60.1272 16.206 60.3602 15.9808C60.5931 15.7555 60.7766 15.4837 60.8989 15.1827C61.0211 14.8817 61.0794 14.5582 61.07 14.2332V14.2332Z" fill="#98C9C0" fill-opacity="0.31"/>
<path d="M66.0539 14.5218C66.0495 13.4331 66.3684 12.3677 66.97 11.4603C67.5717 10.553 68.4292 9.84464 69.4338 9.42499C70.4384 9.00535 71.5449 8.89329 72.6132 9.10301C73.6816 9.31273 74.6636 9.83479 75.435 10.6031C76.2064 11.3714 76.7324 12.3513 76.9464 13.4187C77.1604 14.4862 77.0528 15.5932 76.6372 16.5994C76.2215 17.6056 75.5166 18.4659 74.6117 19.0712C73.7068 19.6765 72.6425 19.9996 71.5538 19.9996C70.8311 20.0079 70.114 19.872 69.4445 19.5999C68.7749 19.3278 68.1663 18.925 67.6542 18.415C67.1421 17.9049 66.7369 17.298 66.4621 16.6295C66.1873 15.9611 66.0485 15.2445 66.0539 14.5218V14.5218ZM73.9406 14.5218C73.9276 14.0526 73.7766 13.5975 73.5064 13.2136C73.2362 12.8297 72.8588 12.534 72.4215 12.3634C71.9841 12.1928 71.5061 12.1549 71.0474 12.2544C70.5886 12.3539 70.1693 12.5865 69.842 12.923C69.5147 13.2595 69.2938 13.6851 69.207 14.1464C69.1202 14.6078 69.1714 15.0845 69.354 15.517C69.5367 15.9494 69.8428 16.3184 70.234 16.5779C70.6253 16.8373 71.0843 16.9757 71.5538 16.9756C71.8753 16.9842 72.1951 16.9261 72.493 16.8049C72.791 16.6838 73.0606 16.5022 73.2848 16.2716C73.5091 16.0411 73.6831 15.7666 73.796 15.4654C73.9088 15.1643 73.9581 14.843 73.9406 14.5218Z" fill="#98C9C0" fill-opacity="0.31"/>
<path d="M78.0537 6.86467C78.0537 6.49587 78.171 6.13536 78.3908 5.82872C78.6105 5.52207 78.9229 5.28307 79.2883 5.14194C79.6538 5.00081 80.0559 4.96388 80.4439 5.03583C80.8319 5.10778 81.1882 5.28537 81.4679 5.54615C81.7476 5.80693 81.9381 6.13918 82.0153 6.50089C82.0925 6.8626 82.0528 7.23752 81.9015 7.57825C81.7501 7.91897 81.4937 8.21019 81.1648 8.41508C80.836 8.61997 80.4493 8.72934 80.0537 8.72934C79.5249 8.72443 79.0192 8.5264 78.6453 8.17777C78.2714 7.82913 78.059 7.35769 78.0537 6.86467V6.86467ZM78.3904 9.64074H81.7249V20H78.3859L78.3904 9.64074Z" fill="#98C9C0" fill-opacity="0.31"/>
<path d="M94.0466 14.1802C94.082 14.8279 93.9836 15.4759 93.757 16.0871C93.5304 16.6982 93.1801 17.2603 92.7262 17.7411C92.2723 18.2219 91.7238 18.6119 91.1123 18.8887C90.5007 19.1655 89.8382 19.3236 89.1627 19.3539C88.5946 19.3836 88.0268 19.2917 87.5004 19.0848C86.9739 18.878 86.5021 18.5614 86.119 18.1579V23H83.0537V9.27969H86.119V10.2004C86.5023 9.79724 86.9742 9.48088 87.5006 9.27421C88.027 9.06755 88.5947 8.97575 89.1627 9.00546C89.8383 9.03562 90.501 9.19365 91.1127 9.47043C91.7244 9.74722 92.273 10.1373 92.7269 10.6183C93.1808 11.0992 93.5311 11.6615 93.7576 12.2728C93.984 12.8841 94.0823 13.5323 94.0466 14.1802V14.1802ZM90.9812 14.1802C90.9693 13.7215 90.8165 13.2764 90.5421 12.9005C90.2677 12.5247 89.8838 12.2349 89.4385 12.0673C88.9932 11.8997 88.5063 11.8618 88.0386 11.9584C87.571 12.0549 87.1434 12.2817 86.8095 12.6102C86.4755 12.9387 86.25 13.3544 86.1611 13.8052C86.0722 14.256 86.1239 14.722 86.3098 15.1448C86.4957 15.5676 86.8074 15.9284 87.206 16.1821C87.6046 16.4358 88.0723 16.571 88.5506 16.571C88.879 16.585 89.2068 16.5323 89.5125 16.4163C89.8182 16.3003 90.0948 16.1236 90.3243 15.8979C90.5538 15.6721 90.731 15.4024 90.8442 15.1064C90.9574 14.8103 91.0041 14.4947 90.9812 14.1802V14.1802Z" fill="#98C9C0" fill-opacity="0.31"/>
<path d="M103.054 16.571C103.054 18.9626 101.163 19.9814 99.1206 19.9814C98.2953 20.0636 97.4666 19.8717 96.7416 19.4306C96.0166 18.9894 95.4286 18.3193 95.0537 17.5068L97.5118 15.9681C97.6112 16.3436 97.8248 16.6703 98.1169 16.8936C98.409 17.1169 98.7619 17.2232 99.1168 17.1949C99.797 17.1949 100.138 16.9659 100.138 16.551C100.138 15.4062 95.4846 16.0101 95.4846 12.4127C95.4846 10.145 97.2252 9.00228 99.1922 9.00228C99.9317 8.97655 100.664 9.16938 101.312 9.56066C101.961 9.95194 102.502 10.5273 102.88 11.2269L100.459 12.6616C100.353 12.3893 100.176 12.1573 99.9509 11.9946C99.7256 11.8319 99.4618 11.7457 99.1922 11.7468C98.7002 11.7468 98.3974 11.9569 98.3974 12.3287C98.4012 13.5145 103.054 12.7236 103.054 16.571Z" fill="#98C9C0" fill-opacity="0.31"/>
<path d="M114.054 10V19.7202H110.927V18.8061C110.567 19.2094 110.109 19.5272 109.591 19.7334C109.073 19.9396 108.51 20.0283 107.948 19.9921C105.843 19.9921 104.054 18.593 104.054 15.9666V10H107.18V15.5395C107.154 15.771 107.182 16.0051 107.263 16.2253C107.343 16.4456 107.475 16.6469 107.647 16.8151C107.82 16.9833 108.029 17.1144 108.262 17.1993C108.494 17.2843 108.744 17.3209 108.993 17.3068C110.139 17.3068 110.931 16.6853 110.931 15.3049V10.0029L114.054 10Z" fill="#98C9C0" fill-opacity="0.31"/>
<path d="M131.054 13.0335V19H128.054V13.2858C128.054 12.3139 127.574 11.6925 126.614 11.6925C125.614 11.6925 125.053 12.3728 125.053 13.5194V19H122.054V13.2858C122.054 12.3139 121.574 11.6925 120.614 11.6925C119.614 11.6925 119.054 12.3728 119.054 13.5194V19H116.054V9.28158H119.054V10.1749C119.365 9.77858 119.773 9.4643 120.241 9.26075C120.709 9.0572 121.223 8.97088 121.734 9.00966C122.247 8.98526 122.758 9.09053 123.217 9.31521C123.676 9.53989 124.068 9.87632 124.353 10.2917C124.686 9.85715 125.126 9.51161 125.633 9.28741C126.14 9.0632 126.698 8.96764 127.253 9.00966C129.55 9.01064 131.054 10.6039 131.054 13.0335Z" fill="#98C9C0" fill-opacity="0.31"/>
<path d="M133.054 9C134.158 9 135.054 8.10457 135.054 7C135.054 5.89543 134.158 5 133.054 5C131.949 5 131.054 5.89543 131.054 7C131.054 8.10457 131.949 9 133.054 9Z" fill="#98C9C0" fill-opacity="0.31"/>
</svg>
