<svg width="120" height="27" viewBox="0 0 120 27" fill="none" xmlns="http://www.w3.org/2000/svg">
<path d="M34.5391 7.79972H37.5612V19.6341H34.5391V7.79972ZM38.76 15.1657C38.76 12.2388 40.6135 10.4925 43.4745 10.4925C46.3354 10.4925 48.189 12.2388 48.189 15.1657C48.189 18.0926 46.3757 19.8487 43.4745 19.8487C40.5732 19.8487 38.76 18.1414 38.76 15.1657ZM45.1568 15.1657C45.1568 13.5559 44.502 12.6096 43.4745 12.6096C42.447 12.6096 41.8022 13.5852 41.8022 15.1657C41.8022 16.7462 42.4369 17.7023 43.4745 17.7023C44.5121 17.7023 45.1568 16.8048 45.1568 15.1755V15.1657ZM49.3273 20.2097H52.2286C52.3666 20.5068 52.6001 20.7527 52.8941 20.911C53.1882 21.0692 53.5271 21.1312 53.8605 21.0878C55.0089 21.0878 55.6133 20.4829 55.6133 19.6048V17.9658H55.5529C55.3121 18.4681 54.9214 18.889 54.4312 19.1742C53.941 19.4594 53.3738 19.5958 52.8028 19.5658C50.5966 19.5658 49.1359 17.9365 49.1359 15.1364C49.1359 12.3364 50.5261 10.5705 52.8431 10.5705C53.432 10.5481 54.0139 10.7006 54.5108 11.0075C55.0077 11.3144 55.3959 11.7611 55.6234 12.2876V12.2876V10.6583H58.6456V19.5365C58.6456 21.6731 56.7013 23 53.8303 23C51.1607 23 49.4986 21.839 49.3273 20.2195V20.2097ZM55.6234 15.156C55.6234 13.7315 54.9485 12.834 53.8807 12.834C52.8128 12.834 52.1581 13.7218 52.1581 15.156C52.1581 16.5901 52.8028 17.3999 53.8807 17.3999C54.9586 17.3999 55.6234 16.6096 55.6234 15.1657V15.156ZM59.7839 15.156C59.7839 12.2291 61.6375 10.4827 64.4984 10.4827C67.3593 10.4827 69.223 12.2291 69.223 15.156C69.223 18.0828 67.4097 19.839 64.4984 19.839C61.5871 19.839 59.7839 18.1414 59.7839 15.1657V15.156ZM66.1807 15.156C66.1807 13.5462 65.5259 12.5998 64.4984 12.5998C63.4709 12.5998 62.8765 13.5852 62.8765 15.1755C62.8765 16.7657 63.5112 17.7121 64.5387 17.7121C65.5662 17.7121 66.1807 16.8048 66.1807 15.1755V15.156ZM70.3714 8.53144C70.3635 8.23593 70.4463 7.94479 70.6095 7.69494C70.7726 7.44509 71.0086 7.24777 71.2877 7.128C71.5668 7.00823 71.8762 6.97141 72.1769 7.02219C72.4776 7.07298 72.756 7.20909 72.9767 7.41327C73.1974 7.61744 73.3506 7.8805 73.4168 8.16908C73.483 8.45766 73.4592 8.75877 73.3484 9.03424C73.2377 9.30971 73.045 9.54714 72.7948 9.71642C72.5446 9.88571 72.2481 9.97923 71.9429 9.98513C71.7406 9.99858 71.5376 9.97139 71.3467 9.90524C71.1558 9.83909 70.981 9.73541 70.8334 9.60073C70.6859 9.46605 70.5686 9.30327 70.4891 9.12261C70.4096 8.94196 70.3695 8.74733 70.3714 8.55095V8.53144ZM70.3714 10.6778H73.3935V19.6341H70.3714V10.6778ZM84.3638 15.156C84.3638 18.0828 83.024 19.7512 80.7272 19.7512C80.1383 19.7878 79.5519 19.6483 79.0474 19.3517C78.543 19.0551 78.1447 18.6156 77.9066 18.0926H77.8461V22.5024H74.824V10.6583H77.8461V12.2583H77.9066C78.1336 11.7267 78.5243 11.2758 79.0254 10.9668C79.5264 10.6578 80.1136 10.5058 80.7071 10.5315C83.024 10.5705 84.4041 12.2486 84.4041 15.1755L84.3638 15.156ZM81.3417 15.156C81.3417 13.7315 80.6668 12.8242 79.609 12.8242C78.5513 12.8242 77.8763 13.7413 77.8663 15.156C77.8562 16.5706 78.5513 17.4779 79.609 17.4779C80.6668 17.4779 81.3417 16.5901 81.3417 15.1755V15.156ZM89.5518 10.4729C92.0602 10.4729 93.5813 11.6242 93.6518 13.4681H90.9017C90.9017 12.834 90.3577 12.4339 89.5216 12.4339C88.6855 12.4339 88.3127 12.7462 88.3127 13.2047C88.3127 13.6632 88.6452 13.8096 89.3201 13.9462L91.2543 14.3267C93.0978 14.7072 93.8835 15.4291 93.8835 16.7852C93.8835 18.6389 92.1408 19.8292 89.572 19.8292C87.0032 19.8292 85.3208 18.6389 85.1899 16.8145H88.1012C88.1919 17.4779 88.7358 17.8682 89.6223 17.8682C90.5088 17.8682 90.9118 17.5853 90.9118 17.117C90.9118 16.6487 90.6297 16.5511 89.9044 16.4048L88.1616 16.0438C86.3584 15.6828 85.4115 14.7559 85.4115 13.3901C85.4317 11.6339 87.0535 10.4925 89.5518 10.4925V10.4729ZM103.967 19.6146H101.056V17.9462H100.996C100.836 18.5064 100.483 18.9966 99.9951 19.3356C99.5076 19.6746 98.9151 19.8419 98.316 19.8097C97.8568 19.835 97.3974 19.7645 96.9688 19.6031C96.5402 19.4416 96.1523 19.193 95.8315 18.8739C95.5106 18.5548 95.2642 18.1727 95.1089 17.7535C94.9536 17.3343 94.893 16.8876 94.9312 16.4438V10.6583H97.9533V15.7706C97.9533 16.834 98.5175 17.3999 99.4543 17.3999C99.674 17.4003 99.8912 17.3553 100.091 17.2678C100.292 17.1802 100.47 17.0523 100.615 16.8924C100.76 16.7326 100.868 16.5446 100.932 16.341C100.996 16.1374 101.014 15.923 100.986 15.7121V10.6583H104.008L103.967 19.6146ZM105.428 10.6583H108.349V12.3852H108.41C108.57 11.8325 108.915 11.3468 109.391 11.0044C109.867 10.6619 110.446 10.4818 111.039 10.4925C111.642 10.4457 112.241 10.6205 112.717 10.982C113.193 11.3436 113.511 11.8654 113.608 12.4437H113.668C113.851 11.8593 114.229 11.3503 114.744 10.997C115.258 10.6437 115.879 10.4662 116.509 10.4925C116.92 10.4791 117.329 10.5496 117.71 10.6994C118.091 10.8493 118.436 11.0751 118.721 11.3621C119.006 11.6492 119.225 11.9912 119.365 12.3658C119.504 12.7403 119.561 13.1392 119.531 13.5364V19.6341H116.509V14.3169C116.509 13.3413 116.056 12.8925 115.21 12.8925C115.021 12.8909 114.834 12.9286 114.662 13.003C114.489 13.0773 114.335 13.1866 114.21 13.3234C114.085 13.4603 113.992 13.6215 113.937 13.7963C113.881 13.971 113.866 14.1552 113.89 14.3364V19.6341H111.019V14.2779C111.019 13.3803 110.566 12.8925 109.74 12.8925C109.549 12.8926 109.36 12.9318 109.186 13.0076C109.012 13.0835 108.857 13.1942 108.73 13.3325C108.603 13.4708 108.508 13.6335 108.452 13.8099C108.395 13.9863 108.377 14.1724 108.4 14.3559V19.6341H105.378L105.428 10.6583Z" fill="#98C9C0" fill-opacity="0.31"/>
<path d="M25.8853 8.15458C25.3788 6.99614 24.7085 5.91656 23.8948 4.94897C22.692 3.47592 21.191 2.27437 19.4905 1.4234C17.79 0.57243 15.9287 0.0913389 14.0289 0.0117879C12.1292 -0.0677631 10.2341 0.256028 8.46849 0.961854C6.70286 1.66768 5.10669 2.73954 3.78502 4.10688C2.46336 5.47422 1.44616 7.10604 0.800397 8.89494C0.154629 10.6838 -0.105075 12.5893 0.0383814 14.4858C0.181838 16.3823 0.725201 18.227 1.63271 19.8983C2.54021 21.5696 3.79128 23.0298 5.30358 24.1826C6.27395 24.9372 7.34618 25.5505 8.48838 26.0045C10.0898 26.6609 11.8036 26.999 13.5343 27C17.1066 26.9921 20.5301 25.5677 23.0543 23.0391C25.5785 20.5105 26.9974 17.0839 27 13.5105C27.0026 11.6673 26.6231 9.84361 25.8853 8.15458V8.15458ZM13.5243 2.74884C15.0785 2.74867 16.6138 3.08845 18.0229 3.74437V3.74437C17.6793 3.89287 17.318 3.9966 16.948 4.05299C15.7304 4.22929 14.6025 4.79474 13.7325 5.66492C12.8626 6.53511 12.2973 7.66338 12.121 8.88132C12.0437 9.56437 11.7331 10.1998 11.2417 10.6804C10.7504 11.161 10.1083 11.4574 9.42391 11.5195C8.20632 11.6958 7.07838 12.2612 6.20844 13.1314C5.33849 14.0016 4.77321 15.1299 4.59696 16.3478C4.53728 16.9973 4.26026 17.6076 3.81071 18.08V18.08C3.03507 16.4407 2.68663 14.6316 2.79782 12.8214C2.90901 11.0111 3.47621 9.25832 4.44664 7.72625C5.41708 6.19418 6.7592 4.93256 8.34812 4.05881C9.93703 3.18506 11.7211 2.72758 13.5343 2.72893L13.5243 2.74884ZM5.29363 20.4793C5.41306 20.3698 5.53249 20.2702 5.65192 20.1507C6.53735 19.292 7.10569 18.1585 7.26422 16.9352C7.3285 16.2475 7.63545 15.6052 8.13009 15.1233C8.60606 14.6277 9.24673 14.3232 9.93149 14.2671C11.1491 14.0908 12.277 13.5254 13.147 12.6552C14.0169 11.785 14.5822 10.6568 14.7584 9.43882C14.8015 8.71956 15.1101 8.04193 15.6243 7.53735C16.112 7.05138 16.7588 6.75795 17.4456 6.71106C18.5642 6.55711 19.6074 6.0597 20.4314 5.28745C21.3695 6.06603 22.1644 7.00265 22.7801 8.05503C22.7423 8.10615 22.6989 8.15289 22.6508 8.1944C22.1757 8.69435 21.5359 9.00552 20.8494 9.07047C19.6305 9.2437 18.5009 9.80814 17.6304 10.6789C16.7599 11.5496 16.1956 12.6796 16.0224 13.8988C15.9523 14.5842 15.6474 15.2242 15.1595 15.7104C14.6716 16.1967 14.0306 16.4992 13.3452 16.5668C12.124 16.7418 10.9919 17.3061 10.1169 18.1759C9.24193 19.0458 8.67081 20.1748 8.48838 21.3952C8.43482 21.8817 8.26777 22.3489 8.0007 22.759C6.97958 22.1526 6.06504 21.3824 5.29363 20.4793V20.4793ZM13.5243 24.322C12.5144 24.3231 11.5094 24.1824 10.5386 23.9039C10.8707 23.2847 11.0865 22.6099 11.1755 21.9128C11.2453 21.229 11.5487 20.5902 12.0346 20.1041C12.5205 19.6181 13.1592 19.3146 13.8428 19.2448C15.0622 19.0705 16.1924 18.5059 17.0643 17.6356C17.9362 16.7652 18.5029 15.6359 18.6797 14.4165C18.7495 13.7327 19.0529 13.0938 19.5388 12.6078C20.0247 12.1217 20.6634 11.8182 21.347 11.7485C22.2646 11.6291 23.1392 11.2873 23.8948 10.7529C24.3144 12.3437 24.3641 14.0094 24.0401 15.6224C23.7161 17.2354 23.0271 18.7527 22.0259 20.0579C21.0246 21.3632 19.7378 22.4216 18.2641 23.1522C16.7904 23.8827 15.169 24.2659 13.5243 24.2722V24.322Z" fill="#98C9C0" fill-opacity="0.31"/>
</svg>
