<svg width="119" height="24" viewBox="0 0 119 24" fill="none" xmlns="http://www.w3.org/2000/svg">
<path d="M38.5219 18.9959C37.8766 19.03 37.2383 18.8513 36.7101 18.4887C36.4893 18.3293 36.3117 18.12 36.1926 17.8788C36.0736 17.6376 36.0166 17.3718 36.0266 17.1044V7.30854C36.0213 7.26706 36.0258 7.22496 36.0397 7.18544C36.0537 7.14592 36.0767 7.11002 36.107 7.08047C36.1374 7.05092 36.1742 7.0285 36.2148 7.01492C36.2554 7.00133 36.2986 6.99695 36.3412 7.00209H38.1638C38.37 7.00209 38.4676 7.10776 38.4676 7.30854V16.3435C38.4676 16.7451 38.6521 16.9459 39.0318 16.9459C39.1927 16.9523 39.3538 16.9345 39.5091 16.893C39.7261 16.893 39.8455 16.9564 39.8563 17.1466L40.0191 18.4675C40.0269 18.506 40.0261 18.5457 40.0169 18.5839C40.0076 18.6222 39.9901 18.658 39.9654 18.689C39.9407 18.7201 39.9095 18.7456 39.8738 18.7639C39.8382 18.7822 39.7989 18.7928 39.7587 18.7951C39.3594 18.9236 38.9423 18.9913 38.5219 18.9959V18.9959Z" fill="white"/>
<path d="M46.9341 17.8908C46.1192 18.6078 45.0952 19 44.0382 19C42.9812 19 41.9573 18.6078 41.1424 17.8908C40.4262 17.1208 40.0244 16.0808 40.0244 14.997C40.0244 13.9131 40.4262 12.8731 41.1424 12.1031C41.9589 11.3898 42.9822 11 44.0382 11C45.0943 11 46.1176 11.3898 46.9341 12.1031C47.6338 12.8802 48.0244 13.9152 48.0244 14.9918C48.0244 16.0684 47.6338 17.1034 46.9341 17.8805V17.8908ZM42.6676 16.5338C43.0457 16.8986 43.5377 17.1007 44.0479 17.1007C44.5581 17.1007 45.0501 16.8986 45.4282 16.5338C45.7705 16.1147 45.959 15.5781 45.959 15.0227C45.959 14.4673 45.7705 13.9306 45.4282 13.5115C45.0501 13.1467 44.5581 12.9447 44.0479 12.9447C43.5377 12.9447 43.0457 13.1467 42.6676 13.5115C42.3253 13.9306 42.1368 14.4673 42.1368 15.0227C42.1368 15.5781 42.3253 16.1147 42.6676 16.5338Z" fill="white"/>
<path d="M57.753 11.227C57.9358 11.227 58.0224 11.3246 58.0224 11.5101V18.5105C58.0392 18.983 57.9521 19.4533 57.7674 19.8873C57.5827 20.3214 57.305 20.7082 56.9546 21.0197C56.1767 21.6928 55.1764 22.0417 54.1552 21.996C53.2328 22.0289 52.3227 21.7733 51.5482 21.2638C51.2174 21.0433 50.9349 20.7563 50.7181 20.4203C50.5013 20.0844 50.3549 19.7069 50.288 19.3111C50.288 19.1158 50.288 19.0279 50.5477 19.0279H52.1638C52.2325 19.0303 52.2989 19.0528 52.3553 19.0926C52.4116 19.1325 52.4554 19.188 52.4813 19.2525C52.5861 19.549 52.7951 19.7959 53.0681 19.9457C53.4009 20.1199 53.7712 20.2072 54.1455 20.1996C54.3714 20.2121 54.5975 20.1789 54.8106 20.1017C55.0236 20.0246 55.2194 19.9052 55.3865 19.7504C55.5392 19.5885 55.6579 19.3969 55.7356 19.1872C55.8133 18.9774 55.8484 18.7539 55.8387 18.53V17.9149C55.26 18.3469 54.5557 18.5702 53.8377 18.5495C53.3352 18.5681 52.8341 18.4834 52.3646 18.3005C51.8952 18.1176 51.4669 17.8404 51.1057 17.4853C50.4121 16.7571 50.0244 15.7839 50.0244 14.7711C50.0244 13.7583 50.4121 12.7851 51.1057 12.0569C51.4687 11.705 51.8974 11.4304 52.3666 11.2493C52.8358 11.0682 53.336 10.9843 53.8377 11.0024C54.5765 10.9826 55.2997 11.2204 55.8867 11.6761V11.5199C55.8823 11.4825 55.8862 11.4445 55.898 11.4088C55.9098 11.3731 55.9294 11.3405 55.9552 11.3134C55.981 11.2863 56.0124 11.2653 56.0471 11.2521C56.0819 11.2388 56.1191 11.2336 56.1561 11.2368L57.753 11.227ZM54.0205 16.8117C54.2683 16.8194 54.5148 16.7719 54.7426 16.6723C54.9703 16.5728 55.1737 16.4237 55.3384 16.2356C55.6582 15.8164 55.8318 15.3013 55.8318 14.7711C55.8318 14.2409 55.6582 13.7258 55.3384 13.3066C55.1743 13.121 54.9721 12.9742 54.7461 12.8763C54.5201 12.7785 54.2757 12.7321 54.0301 12.7403C53.7794 12.7323 53.53 12.7797 53.2991 12.8791C53.0683 12.9786 52.8614 13.1278 52.6929 13.3164C52.3386 13.7173 52.1523 14.2427 52.1735 14.7809C52.1561 15.3138 52.3383 15.8335 52.6833 16.2356C52.8522 16.4237 53.0591 16.5725 53.2899 16.6719C53.5207 16.7713 53.7699 16.819 54.0205 16.8117V16.8117Z" fill="white"/>
<path d="M66.9304 17.8956C66.1112 18.6097 65.0844 19 64.0249 19C62.9653 19 61.9385 18.6097 61.1193 17.8956C60.4167 17.1159 60.0244 16.078 60.0244 14.9985C60.0244 13.9189 60.4167 12.8811 61.1193 12.1014C61.9393 11.3891 62.9658 11 64.0249 11C65.084 11 66.1105 11.3891 66.9304 12.1014C67.6325 12.8794 68.0244 13.9155 68.0244 14.9933C68.0244 16.0712 67.6325 17.1073 66.9304 17.8853V17.8956ZM62.6399 16.5371C62.8256 16.7248 63.0444 16.8715 63.2838 16.9686C63.5232 17.0658 63.7784 17.1115 64.0346 17.1031C64.2891 17.1101 64.5424 17.0638 64.7801 16.9666C65.0177 16.8695 65.235 16.7235 65.4195 16.5371C65.7573 16.1147 65.9428 15.5785 65.9428 15.0242C65.9428 14.4699 65.7573 13.9337 65.4195 13.5114C65.235 13.3249 65.0177 13.1789 64.7801 13.0818C64.5424 12.9847 64.2891 12.9383 64.0346 12.9453C63.7784 12.9369 63.5232 12.9827 63.2838 13.0798C63.0444 13.177 62.8256 13.3237 62.6399 13.5114C62.3021 13.9337 62.1166 14.4699 62.1166 15.0242C62.1166 15.5785 62.3021 16.1147 62.6399 16.5371V16.5371Z" fill="white"/>
<path d="M71.376 10.2336C71.1045 10.4786 70.7559 10.6136 70.3951 10.6136C70.0343 10.6136 69.6857 10.4786 69.4142 10.2336C69.2911 10.1138 69.193 9.96938 69.126 9.80915C69.059 9.64891 69.0244 9.47625 69.0244 9.30175C69.0244 9.12725 69.059 8.95459 69.126 8.79435C69.193 8.63412 69.2911 8.48969 69.4142 8.36992C69.6885 8.13105 70.036 8 70.3951 8C70.7542 8 71.1017 8.13105 71.376 8.36992C71.4991 8.48969 71.5972 8.63412 71.6642 8.79435C71.7312 8.95459 71.7658 9.12725 71.7658 9.30175C71.7658 9.47625 71.7312 9.64891 71.6642 9.80915C71.5972 9.96938 71.4991 10.1138 71.376 10.2336V10.2336ZM71.5917 19.9966C70.9811 20.0274 70.3779 19.8487 69.8764 19.4883C69.6706 19.3263 69.5054 19.1158 69.3946 18.8745C69.2839 18.6331 69.2307 18.368 69.2396 18.1012V12.3408C69.2346 12.2992 69.2389 12.257 69.2521 12.2174C69.2653 12.1778 69.2871 12.1419 69.3158 12.1122C69.3445 12.0826 69.3794 12.0602 69.4178 12.0466C69.4562 12.0329 69.4972 12.0285 69.5375 12.0337H71.263C71.4581 12.0337 71.5506 12.1396 71.5506 12.3408V17.3388C71.5506 17.7411 71.7252 17.9423 72.0744 17.9423C72.2302 17.9481 72.3859 17.9303 72.5366 17.8894C72.742 17.8894 72.855 17.9529 72.8653 18.1435L73.0193 19.4671C73.0267 19.5057 73.026 19.5455 73.0173 19.5838C73.0085 19.6221 72.9919 19.658 72.9685 19.6891C72.9452 19.7202 72.9156 19.7458 72.8819 19.7641C72.8481 19.7824 72.8109 19.7931 72.7728 19.7954C72.3915 19.9248 71.9931 19.9927 71.5917 19.9966V19.9966Z" fill="white"/>
<path d="M79.878 11.0072C80.4274 10.9865 80.9755 11.0713 81.4899 11.2566C82.0043 11.442 82.4744 11.724 82.8724 12.0861C83.6127 12.8442 84.0244 13.842 84.0244 14.8782C84.0244 15.9145 83.6127 16.9122 82.8724 17.6704C82.4764 18.0356 82.0068 18.3204 81.4921 18.5076C80.9774 18.6948 80.4283 18.7804 79.878 18.7592C79.0939 18.7759 78.3256 18.5479 77.6897 18.1099V21.7162C77.6897 21.906 77.585 21.9959 77.3861 21.9959H75.6272C75.587 22.0031 75.5457 22.0008 75.5067 21.9893C75.4677 21.9777 75.4322 21.9573 75.4033 21.9298C75.3745 21.9022 75.353 21.8684 75.341 21.8312C75.3289 21.794 75.3265 21.7545 75.334 21.7162V13.5246C75.3463 13.4445 75.3388 13.3627 75.3122 13.2859C75.2855 13.209 75.2403 13.1391 75.1803 13.0819C75.1203 13.0246 75.0471 12.9815 74.9665 12.9561C74.8859 12.9306 74.8002 12.9235 74.7163 12.9352H74.3708C74.1404 12.9352 74.0253 12.8553 74.0253 12.6955V11.5167C74.0198 11.4437 74.0408 11.3712 74.0846 11.3112C74.1284 11.2512 74.1925 11.2074 74.2661 11.187C74.6282 11.0614 75.0115 11.0004 75.3968 11.0072C75.781 10.9747 76.1667 11.0525 76.5043 11.2305C76.8419 11.4084 77.1162 11.6785 77.2919 12.0062C77.6291 11.6807 78.0324 11.4242 78.477 11.2524C78.9217 11.0807 79.3984 10.9972 79.878 11.0072ZM78.2446 16.3717C78.4313 16.5578 78.6556 16.706 78.9039 16.8072C79.1522 16.9084 79.4195 16.9606 79.6895 16.9606C79.9595 16.9606 80.2268 16.9084 80.4751 16.8072C80.7234 16.706 80.9477 16.5578 81.1344 16.3717C81.5276 15.9532 81.7342 15.4049 81.7102 14.8433C81.7376 14.2812 81.5306 13.7316 81.1344 13.3148C80.9477 13.1287 80.7234 12.9805 80.4751 12.8793C80.2268 12.7781 79.9595 12.7259 79.6895 12.7259C79.4195 12.7259 79.1522 12.7781 78.9039 12.8793C78.6556 12.9805 78.4313 13.1287 78.2446 13.3148C77.8637 13.739 77.6654 14.2852 77.6897 14.8433C77.6685 15.4009 77.8664 15.9461 78.2446 16.3717Z" fill="white"/>
<path d="M87.6647 18.9958C86.7886 19.0336 85.9198 18.8136 85.1565 18.3607C84.8502 18.1671 84.5894 17.9035 84.3934 17.5896C84.1975 17.2757 84.0713 16.9195 84.0244 16.5475C84.0244 16.3426 84.0927 16.2401 84.3074 16.2401H85.7421C85.8103 16.2429 85.8765 16.2654 85.9333 16.3052C85.9902 16.345 86.0354 16.4004 86.0641 16.4655C86.2691 17.0187 86.8059 17.2953 87.6647 17.2953C87.9643 17.3097 88.2626 17.2463 88.5333 17.1109C88.6267 17.0666 88.7069 16.9965 88.7654 16.9081C88.8238 16.8197 88.8583 16.7163 88.8651 16.6089C88.8651 16.3426 88.709 16.1582 88.3967 16.0352C88.0262 15.9058 87.6433 15.8199 87.2548 15.7791C86.7946 15.7245 86.3382 15.6389 85.8885 15.523C85.4511 15.4191 85.0534 15.18 84.7466 14.8367C84.566 14.6033 84.433 14.3334 84.356 14.0437C84.2789 13.7541 84.2595 13.4509 84.2989 13.1531C84.3382 12.8552 84.4355 12.569 84.5848 12.3123C84.734 12.0556 84.9319 11.8339 85.1663 11.6609C85.8697 11.1906 86.6951 10.9614 87.5281 11.0053C88.3346 10.9767 89.1325 11.1861 89.8313 11.6097C90.1129 11.7771 90.3554 12.0084 90.5411 12.2866C90.7268 12.5649 90.8511 12.8831 90.9048 13.2181C90.9048 13.4229 90.817 13.5254 90.6413 13.5254H89.1969C89.1361 13.5292 89.0756 13.5136 89.0234 13.4807C88.9712 13.4478 88.9296 13.3991 88.9041 13.341C88.8076 13.0984 88.6259 12.904 88.3967 12.798C88.138 12.656 87.8492 12.5855 87.5573 12.5932C87.2713 12.5768 86.9859 12.6367 86.7278 12.7673C86.6369 12.8041 86.5585 12.8687 86.5028 12.9527C86.4472 13.0367 86.4168 13.1362 86.4155 13.2386C86.4217 13.3786 86.4706 13.5129 86.5549 13.6217C86.6392 13.7305 86.7545 13.8081 86.8839 13.843C87.2587 13.9912 87.6484 14.0943 88.0453 14.1503C88.5017 14.2133 88.9546 14.3022 89.4019 14.4166C89.8393 14.5206 90.237 14.7596 90.5437 15.103C90.7078 15.2922 90.8346 15.5136 90.9167 15.7545C90.9987 15.9954 91.0345 16.251 91.022 16.5065C91.0304 16.8606 90.9512 17.211 90.7921 17.5234C90.633 17.8358 90.3995 18.0996 90.1143 18.289C89.3852 18.7803 88.5307 19.0269 87.6647 18.9958V18.9958Z" fill="white"/>
<path d="M102.021 18.4564C102.027 18.4941 102.025 18.5326 102.017 18.5697C102.008 18.6068 101.993 18.6417 101.972 18.6724C101.951 18.7031 101.924 18.7289 101.894 18.7483C101.864 18.7678 101.83 18.7805 101.795 18.7856C101.436 18.9123 101.061 18.9803 100.683 18.9875C100.309 19.0293 99.9314 18.9662 99.5867 18.8043C99.242 18.6424 98.9418 18.3872 98.7152 18.0634C98.0202 18.7084 97.1215 19.0394 96.2062 18.9875C95.7813 19.0086 95.3569 18.9335 94.9604 18.7671C94.5639 18.6006 94.204 18.3464 93.9039 18.0209C93.6059 17.6798 93.3747 17.2772 93.2243 16.8374C93.0738 16.3975 93.0071 15.9294 93.0282 15.4611V11.308C93.0282 11.1062 93.1168 11 93.3037 11H94.9567C95.1436 11 95.2322 11.1062 95.2322 11.308V15.1424C95.2142 15.6202 95.3655 16.0873 95.6552 16.4489C95.7999 16.6145 95.9757 16.7448 96.1709 16.8309C96.366 16.917 96.5761 16.957 96.7867 16.9481C97.0024 16.9583 97.2178 16.9222 97.4204 16.842C97.6231 16.7618 97.809 16.639 97.9674 16.4808C98.1174 16.314 98.234 16.1157 98.3102 15.8983C98.3863 15.6809 98.4204 15.449 98.4102 15.2168V11.308C98.4102 11.1062 98.4987 11 98.6857 11H100.358C100.545 11 100.634 11.1062 100.634 11.308V16.3108C100.634 16.7251 100.801 16.9269 101.126 16.9269C101.278 16.9332 101.431 16.9153 101.578 16.8738C101.616 16.8625 101.655 16.8605 101.693 16.8678C101.731 16.8752 101.767 16.8918 101.798 16.9163C101.829 16.9408 101.855 16.9727 101.873 17.0095C101.891 17.0463 101.902 17.087 101.903 17.1287L102.021 18.4564Z" fill="white"/>
<path d="M118.017 18.4816C118.026 18.5184 118.027 18.5569 118.02 18.5941C118.013 18.6314 117.998 18.6665 117.976 18.697C117.954 18.7275 117.927 18.7527 117.895 18.7706C117.863 18.7885 117.827 18.7988 117.791 18.8007C117.426 18.9252 117.045 18.9911 116.661 18.9963C116.076 19.0279 115.498 18.854 115.019 18.5022C114.812 18.3514 114.643 18.1495 114.528 17.9142C114.413 17.679 114.355 17.4177 114.36 17.1535V14.734C114.381 14.2723 114.233 13.8197 113.947 13.4677C113.809 13.3067 113.639 13.1799 113.449 13.0962C113.258 13.0125 113.052 12.9741 112.846 12.9838C112.66 12.9764 112.475 13.0134 112.305 13.0918C112.135 13.1703 111.984 13.2883 111.863 13.4368C111.604 13.7818 111.471 14.2129 111.49 14.6516V18.4507C111.49 18.6463 111.401 18.7493 111.214 18.7493H109.553C109.514 18.7543 109.475 18.75 109.438 18.7368C109.402 18.7235 109.368 18.7017 109.341 18.6729C109.313 18.6441 109.292 18.6091 109.28 18.5706C109.267 18.5321 109.263 18.4911 109.268 18.4507V14.734C109.289 14.2774 109.153 13.8279 108.884 13.4677C108.764 13.3163 108.614 13.1945 108.444 13.1109C108.274 13.0273 108.089 12.9839 107.901 12.9838C107.701 12.9753 107.501 13.0113 107.314 13.0893C107.128 13.1674 106.96 13.2858 106.82 13.4368C106.539 13.7708 106.394 14.207 106.417 14.6516V18.4507C106.422 18.4911 106.418 18.5321 106.405 18.5706C106.392 18.6091 106.371 18.6441 106.344 18.6729C106.316 18.7017 106.283 18.7235 106.246 18.7368C106.209 18.75 106.17 18.7543 106.132 18.7493H104.529C104.343 18.7493 104.254 18.6463 104.254 18.4507V13.6015C104.266 13.5189 104.259 13.4347 104.234 13.3554C104.208 13.2762 104.166 13.2042 104.11 13.1452C104.053 13.0862 103.985 13.0418 103.909 13.0155C103.833 12.9893 103.753 12.9819 103.674 12.9941H103.35C103.133 12.9941 103.025 12.9117 103.025 12.747V11.5321C103.02 11.4569 103.04 11.3822 103.081 11.3204C103.122 11.2585 103.182 11.2134 103.251 11.1924C103.591 11.0629 103.951 11.0001 104.313 11.007C104.66 10.9761 105.009 11.0485 105.319 11.2161C105.628 11.3837 105.886 11.6396 106.063 11.9542C106.395 11.625 106.787 11.371 107.217 11.208C107.647 11.045 108.104 10.9766 108.56 11.007C109.003 10.9844 109.445 11.0714 109.849 11.261C110.254 11.4506 110.611 11.7375 110.89 12.0984C111.215 11.728 111.615 11.438 112.06 11.2493C112.506 11.0606 112.986 10.9778 113.465 11.007C113.895 10.986 114.323 11.0584 114.724 11.2197C115.125 11.3809 115.49 11.6275 115.795 11.9439C116.094 12.2739 116.326 12.6639 116.476 13.0905C116.626 13.517 116.693 13.9711 116.67 14.4251V16.4122C116.67 16.8034 116.837 16.999 117.152 16.999C117.304 17.0065 117.457 16.9891 117.604 16.9475C117.807 16.9475 117.916 17.0299 117.929 17.1946L118.017 18.4816Z" fill="white"/>
<path d="M0.404162 10.5542C1.13143 7.54045 2.81575 4.86423 5.18895 2.95162C7.56215 1.03902 10.4878 0 13.5 0C16.5122 0 19.4379 1.03902 21.8111 2.95162C24.1843 4.86423 25.8686 7.54045 26.5958 10.5542H25.4129C23.4174 10.5239 21.4628 11.1387 19.8237 12.3124C19.7291 12.383 19.6303 12.4475 19.5279 12.5055H19.3899C19.2876 12.4475 19.1888 12.383 19.0942 12.3124C17.4405 11.1659 15.4928 10.5535 13.5 10.5535C11.5072 10.5535 9.55953 11.1659 7.90581 12.3124C7.8112 12.383 7.71244 12.4475 7.61008 12.5055H7.47207C7.36971 12.4475 7.27095 12.383 7.17634 12.3124C5.53715 11.1387 3.58257 10.5239 1.58708 10.5542H0.404162ZM23.2837 16.9265C23.8909 16.4389 24.6435 16.1838 25.4129 16.2049H27V12.9425H25.4129C24.0577 12.9256 22.7335 13.3605 21.6375 14.1824C21.0207 14.6512 20.2745 14.9042 19.5082 14.9042C18.7419 14.9042 17.9958 14.6512 17.379 14.1824C16.2551 13.3758 14.9186 12.9435 13.5493 12.9435C12.1799 12.9435 10.8435 13.3758 9.71961 14.1824C9.10282 14.6512 8.35665 14.9042 7.59036 14.9042C6.82407 14.9042 6.07791 14.6512 5.46112 14.1824C4.35154 13.35 3.00834 12.9145 1.63636 12.9425H0V16.2049H1.58708C2.35647 16.1838 3.10908 16.4389 3.71632 16.9265C4.83812 17.7336 6.17313 18.1663 7.54107 18.1663C8.90902 18.1663 10.244 17.7336 11.3658 16.9265C11.9738 16.4404 12.7259 16.1855 13.4951 16.2049C14.2647 16.1821 15.0179 16.4374 15.6243 16.9265C16.7482 17.7331 18.0847 18.1654 19.454 18.1654C20.8233 18.1654 22.1598 17.7331 23.2837 16.9265V16.9265ZM23.2837 22.7601C23.8909 22.2726 24.6435 22.0175 25.4129 22.0385H27V18.7762H25.4129C24.0577 18.7593 22.7335 19.1942 21.6375 20.0161C21.0207 20.4849 20.2745 20.7378 19.5082 20.7378C18.7419 20.7378 17.9958 20.4849 17.379 20.0161C16.2551 19.2095 14.9186 18.7771 13.5493 18.7771C12.1799 18.7771 10.8435 19.2095 9.71961 20.0161C9.10282 20.4849 8.35665 20.7378 7.59036 20.7378C6.82407 20.7378 6.07791 20.4849 5.46112 20.0161C4.35154 19.1836 3.00834 18.7482 1.63636 18.7762H0V22.0385H1.58708C2.35647 22.0175 3.10908 22.2726 3.71632 22.7601C4.83812 23.5672 6.17313 24 7.54107 24C8.90902 24 10.244 23.5672 11.3658 22.7601C11.9738 22.2741 12.7259 22.0192 13.4951 22.0385C14.2647 22.0158 15.0179 22.271 15.6243 22.7601C16.7482 23.5667 18.0847 23.9991 19.454 23.9991C20.8233 23.9991 22.1598 23.5667 23.2837 22.7601V22.7601Z" fill="white"/>
</svg>
