<svg width="119" height="24" viewBox="0 0 119 24" fill="none" xmlns="http://www.w3.org/2000/svg">
<path d="M38.5726 18.9959C37.9273 19.03 37.2891 18.8513 36.7608 18.4887C36.5401 18.3293 36.3625 18.12 36.2434 17.8788C36.1243 17.6376 36.0673 17.3718 36.0773 17.1044V7.30854C36.0721 7.26706 36.0766 7.22496 36.0905 7.18544C36.1045 7.14592 36.1275 7.11002 36.1578 7.08047C36.1882 7.05092 36.225 7.0285 36.2656 7.01492C36.3062 7.00133 36.3494 6.99695 36.392 7.00209H38.2146C38.4208 7.00209 38.5184 7.10776 38.5184 7.30854V16.3435C38.5184 16.7451 38.7028 16.9459 39.0826 16.9459C39.2435 16.9523 39.4046 16.9345 39.5599 16.893C39.7769 16.893 39.8962 16.9564 39.9071 17.1466L40.0698 18.4675C40.0777 18.506 40.0769 18.5457 40.0677 18.5839C40.0584 18.6222 40.0408 18.658 40.0162 18.689C39.9915 18.7201 39.9603 18.7456 39.9246 18.7639C39.889 18.7822 39.8497 18.7928 39.8095 18.7951C39.4102 18.9236 38.9931 18.9913 38.5726 18.9959V18.9959Z" fill="#98C9C0" fill-opacity="0.31"/>
<path d="M46.9849 17.8908C46.17 18.6078 45.146 19 44.089 19C43.032 19 42.008 18.6078 41.1932 17.8908C40.477 17.1208 40.0752 16.0808 40.0752 14.997C40.0752 13.9131 40.477 12.8731 41.1932 12.1031C42.0096 11.3898 43.033 11 44.089 11C45.145 11 46.1684 11.3898 46.9849 12.1031C47.6845 12.8802 48.0752 13.9152 48.0752 14.9918C48.0752 16.0684 47.6845 17.1034 46.9849 17.8805V17.8908ZM42.7183 16.5338C43.0965 16.8986 43.5885 17.1007 44.0987 17.1007C44.6089 17.1007 45.1009 16.8986 45.479 16.5338C45.8213 16.1147 46.0098 15.5781 46.0098 15.0227C46.0098 14.4673 45.8213 13.9306 45.479 13.5115C45.1009 13.1467 44.6089 12.9447 44.0987 12.9447C43.5885 12.9447 43.0965 13.1467 42.7183 13.5115C42.3761 13.9306 42.1876 14.4673 42.1876 15.0227C42.1876 15.5781 42.3761 16.1147 42.7183 16.5338Z" fill="#98C9C0" fill-opacity="0.31"/>
<path d="M57.8038 11.227C57.9866 11.227 58.0732 11.3246 58.0732 11.5101V18.5105C58.09 18.983 58.0028 19.4533 57.8181 19.8873C57.6334 20.3214 57.3558 20.7082 57.0053 21.0197C56.2275 21.6928 55.2272 22.0417 54.206 21.996C53.2835 22.0289 52.3735 21.7733 51.599 21.2638C51.2682 21.0433 50.9857 20.7563 50.7689 20.4203C50.5521 20.0844 50.4057 19.7069 50.3387 19.3111C50.3387 19.1158 50.3387 19.0279 50.5985 19.0279H52.2146C52.2832 19.0303 52.3497 19.0528 52.406 19.0926C52.4624 19.1325 52.5061 19.188 52.5321 19.2525C52.6369 19.549 52.8458 19.7959 53.1189 19.9457C53.4516 20.1199 53.822 20.2072 54.1963 20.1996C54.4222 20.2121 54.6483 20.1789 54.8613 20.1017C55.0744 20.0246 55.2702 19.9052 55.4373 19.7504C55.5899 19.5885 55.7087 19.3969 55.7864 19.1872C55.8641 18.9774 55.8991 18.7539 55.8894 18.53V17.9149C55.3108 18.3469 54.6065 18.5702 53.8885 18.5495C53.386 18.5681 52.8849 18.4834 52.4154 18.3005C51.9459 18.1176 51.5177 17.8404 51.1564 17.4853C50.4629 16.7571 50.0752 15.7839 50.0752 14.7711C50.0752 13.7583 50.4629 12.7851 51.1564 12.0569C51.5195 11.705 51.9482 11.4304 52.4174 11.2493C52.8866 11.0682 53.3868 10.9843 53.8885 11.0024C54.6273 10.9826 55.3505 11.2204 55.9375 11.6761V11.5199C55.9331 11.4825 55.937 11.4445 55.9488 11.4088C55.9606 11.3731 55.9802 11.3405 56.0059 11.3134C56.0317 11.2863 56.0631 11.2653 56.0979 11.2521C56.1327 11.2388 56.1699 11.2336 56.2069 11.2368L57.8038 11.227ZM54.0713 16.8117C54.3191 16.8194 54.5656 16.7719 54.7933 16.6723C55.0211 16.5728 55.2245 16.4237 55.3892 16.2356C55.709 15.8164 55.8826 15.3013 55.8826 14.7711C55.8826 14.2409 55.709 13.7258 55.3892 13.3066C55.2251 13.121 55.0229 12.9742 54.7969 12.8763C54.5708 12.7785 54.3265 12.7321 54.0809 12.7403C53.8302 12.7323 53.5808 12.7797 53.3499 12.8791C53.119 12.9786 52.9122 13.1278 52.7437 13.3164C52.3894 13.7173 52.2031 14.2427 52.2242 14.7809C52.2069 15.3138 52.3891 15.8335 52.7341 16.2356C52.903 16.4237 53.1099 16.5725 53.3407 16.6719C53.5715 16.7713 53.8207 16.819 54.0713 16.8117V16.8117Z" fill="#98C9C0" fill-opacity="0.31"/>
<path d="M66.9812 17.8956C66.162 18.6097 65.1352 19 64.0757 19C63.0161 19 61.9893 18.6097 61.1701 17.8956C60.4674 17.1159 60.0752 16.078 60.0752 14.9985C60.0752 13.9189 60.4674 12.8811 61.1701 12.1014C61.9901 11.3891 63.0166 11 64.0757 11C65.1347 11 66.1612 11.3891 66.9812 12.1014C67.6832 12.8794 68.0752 13.9155 68.0752 14.9933C68.0752 16.0712 67.6832 17.1073 66.9812 17.8853V17.8956ZM62.6907 16.5371C62.8763 16.7248 63.0952 16.8715 63.3346 16.9686C63.574 17.0658 63.8292 17.1115 64.0853 17.1031C64.3399 17.1101 64.5932 17.0638 64.8309 16.9666C65.0685 16.8695 65.2858 16.7235 65.4703 16.5371C65.8081 16.1147 65.9936 15.5785 65.9936 15.0242C65.9936 14.4699 65.8081 13.9337 65.4703 13.5114C65.2858 13.3249 65.0685 13.1789 64.8309 13.0818C64.5932 12.9847 64.3399 12.9383 64.0853 12.9453C63.8292 12.9369 63.574 12.9827 63.3346 13.0798C63.0952 13.177 62.8763 13.3237 62.6907 13.5114C62.3529 13.9337 62.1674 14.4699 62.1674 15.0242C62.1674 15.5785 62.3529 16.1147 62.6907 16.5371V16.5371Z" fill="#98C9C0" fill-opacity="0.31"/>
<path d="M71.4268 10.2336C71.1553 10.4786 70.8067 10.6136 70.4459 10.6136C70.0851 10.6136 69.7365 10.4786 69.465 10.2336C69.3419 10.1138 69.2438 9.96938 69.1768 9.80915C69.1098 9.64891 69.0752 9.47625 69.0752 9.30175C69.0752 9.12725 69.1098 8.95459 69.1768 8.79435C69.2438 8.63412 69.3419 8.48969 69.465 8.36992C69.7393 8.13105 70.0868 8 70.4459 8C70.805 8 71.1524 8.13105 71.4268 8.36992C71.5499 8.48969 71.6479 8.63412 71.715 8.79435C71.782 8.95459 71.8166 9.12725 71.8166 9.30175C71.8166 9.47625 71.782 9.64891 71.715 9.80915C71.6479 9.96938 71.5499 10.1138 71.4268 10.2336V10.2336ZM71.6425 19.9966C71.0319 20.0274 70.4287 19.8487 69.9272 19.4883C69.7214 19.3263 69.5562 19.1158 69.4454 18.8745C69.3346 18.6331 69.2815 18.368 69.2904 18.1012V12.3408C69.2854 12.2992 69.2897 12.257 69.3029 12.2174C69.3161 12.1778 69.3379 12.1419 69.3666 12.1122C69.3953 12.0826 69.4302 12.0602 69.4686 12.0466C69.507 12.0329 69.5479 12.0285 69.5883 12.0337H71.3138C71.5089 12.0337 71.6014 12.1396 71.6014 12.3408V17.3388C71.6014 17.7411 71.776 17.9423 72.1252 17.9423C72.2809 17.9481 72.4367 17.9303 72.5874 17.8894C72.7928 17.8894 72.9058 17.9529 72.9161 18.1435L73.0701 19.4671C73.0775 19.5057 73.0768 19.5455 73.0681 19.5838C73.0593 19.6221 73.0427 19.658 73.0193 19.6891C72.996 19.7202 72.9664 19.7458 72.9326 19.7641C72.8989 19.7824 72.8617 19.7931 72.8236 19.7954C72.4423 19.9248 72.0439 19.9927 71.6425 19.9966V19.9966Z" fill="#98C9C0" fill-opacity="0.31"/>
<path d="M79.9287 11.0072C80.4782 10.9865 81.0263 11.0713 81.5407 11.2566C82.0551 11.442 82.5252 11.724 82.9232 12.0861C83.6635 12.8442 84.0752 13.842 84.0752 14.8782C84.0752 15.9145 83.6635 16.9122 82.9232 17.6704C82.5271 18.0356 82.0576 18.3204 81.5429 18.5076C81.0282 18.6948 80.4791 18.7804 79.9287 18.7592C79.1447 18.7759 78.3764 18.5479 77.7405 18.1099V21.7162C77.7405 21.906 77.6358 21.9959 77.4369 21.9959H75.6779C75.6378 22.0031 75.5964 22.0008 75.5574 21.9893C75.5184 21.9777 75.483 21.9573 75.4541 21.9298C75.4252 21.9022 75.4038 21.8684 75.3917 21.8312C75.3797 21.794 75.3773 21.7545 75.3848 21.7162V13.5246C75.3971 13.4445 75.3896 13.3627 75.3629 13.2859C75.3363 13.209 75.2911 13.1391 75.2311 13.0819C75.1711 13.0246 75.0979 12.9815 75.0173 12.9561C74.9367 12.9306 74.851 12.9235 74.7671 12.9352H74.4215C74.1912 12.9352 74.076 12.8553 74.076 12.6955V11.5167C74.0706 11.4437 74.0915 11.3712 74.1354 11.3112C74.1792 11.2512 74.2432 11.2074 74.3168 11.187C74.679 11.0614 75.0623 11.0004 75.4476 11.0072C75.8318 10.9747 76.2174 11.0525 76.5551 11.2305C76.8927 11.4084 77.1669 11.6785 77.3427 12.0062C77.6799 11.6807 78.0832 11.4242 78.5278 11.2524C78.9725 11.0807 79.4492 10.9972 79.9287 11.0072ZM78.2954 16.3717C78.4821 16.5578 78.7064 16.706 78.9547 16.8072C79.203 16.9084 79.4703 16.9606 79.7403 16.9606C80.0103 16.9606 80.2775 16.9084 80.5259 16.8072C80.7742 16.706 80.9984 16.5578 81.1851 16.3717C81.5784 15.9532 81.785 15.4049 81.761 14.8433C81.7884 14.2812 81.5813 13.7316 81.1851 13.3148C80.9984 13.1287 80.7742 12.9805 80.5259 12.8793C80.2775 12.7781 80.0103 12.7259 79.7403 12.7259C79.4703 12.7259 79.203 12.7781 78.9547 12.8793C78.7064 12.9805 78.4821 13.1287 78.2954 13.3148C77.9145 13.739 77.7162 14.2852 77.7405 14.8433C77.7193 15.4009 77.9172 15.9461 78.2954 16.3717Z" fill="#98C9C0" fill-opacity="0.31"/>
<path d="M87.7155 18.9958C86.8394 19.0336 85.9706 18.8136 85.2073 18.3607C84.901 18.1671 84.6402 17.9035 84.4442 17.5896C84.2482 17.2757 84.1221 16.9195 84.0752 16.5475C84.0752 16.3426 84.1435 16.2401 84.3582 16.2401H85.7929C85.8611 16.2429 85.9273 16.2654 85.9841 16.3052C86.041 16.345 86.0862 16.4004 86.1149 16.4655C86.3199 17.0187 86.8566 17.2953 87.7155 17.2953C88.015 17.3097 88.3134 17.2463 88.5841 17.1109C88.6775 17.0666 88.7577 16.9965 88.8162 16.9081C88.8746 16.8197 88.9091 16.7163 88.9159 16.6089C88.9159 16.3426 88.7597 16.1582 88.4474 16.0352C88.077 15.9058 87.6941 15.8199 87.3056 15.7791C86.8454 15.7245 86.389 15.6389 85.9393 15.523C85.5019 15.4191 85.1042 15.18 84.7974 14.8367C84.6168 14.6033 84.4838 14.3334 84.4067 14.0437C84.3297 13.7541 84.3103 13.4509 84.3496 13.1531C84.389 12.8552 84.4863 12.569 84.6355 12.3123C84.7848 12.0556 84.9827 11.8339 85.2171 11.6609C85.9205 11.1906 86.7459 10.9614 87.5788 11.0053C88.3853 10.9767 89.1833 11.1861 89.8821 11.6097C90.1637 11.7771 90.4062 12.0084 90.5919 12.2866C90.7776 12.5649 90.9019 12.8831 90.9556 13.2181C90.9556 13.4229 90.8678 13.5254 90.6921 13.5254H89.2477C89.1869 13.5292 89.1264 13.5136 89.0742 13.4807C89.0219 13.4478 88.9804 13.3991 88.9549 13.341C88.8584 13.0984 88.6767 12.904 88.4474 12.798C88.1888 12.656 87.8999 12.5855 87.6081 12.5932C87.322 12.5768 87.0367 12.6367 86.7786 12.7673C86.6876 12.8041 86.6093 12.8687 86.5536 12.9527C86.498 13.0367 86.4675 13.1362 86.4663 13.2386C86.4725 13.3786 86.5214 13.5129 86.6057 13.6217C86.69 13.7305 86.8053 13.8081 86.9347 13.843C87.3095 13.9912 87.6991 14.0943 88.0961 14.1503C88.5525 14.2133 89.0054 14.3022 89.4527 14.4166C89.8901 14.5206 90.2878 14.7596 90.5945 15.103C90.7586 15.2922 90.8854 15.5136 90.9674 15.7545C91.0495 15.9954 91.0853 16.251 91.0727 16.5065C91.0812 16.8606 91.002 17.211 90.8429 17.5234C90.6838 17.8358 90.4503 18.0996 90.1651 18.289C89.4359 18.7803 88.5815 19.0269 87.7155 18.9958V18.9958Z" fill="#98C9C0" fill-opacity="0.31"/>
<path d="M102.072 18.4564C102.077 18.4941 102.076 18.5326 102.068 18.5697C102.059 18.6068 102.044 18.6417 102.023 18.6724C102.002 18.7031 101.975 18.7289 101.945 18.7483C101.914 18.7678 101.881 18.7805 101.846 18.7856C101.486 18.9123 101.112 18.9803 100.734 18.9875C100.36 19.0293 99.9822 18.9662 99.6375 18.8043C99.2928 18.6424 98.9926 18.3872 98.766 18.0634C98.0709 18.7084 97.1723 19.0394 96.257 18.9875C95.832 19.0086 95.4077 18.9335 95.0111 18.7671C94.6146 18.6006 94.2548 18.3464 93.9547 18.0209C93.6567 17.6798 93.4255 17.2772 93.275 16.8374C93.1246 16.3975 93.0579 15.9294 93.079 15.4611V11.308C93.079 11.1062 93.1676 11 93.3545 11H95.0075C95.1944 11 95.283 11.1062 95.283 11.308V15.1424C95.265 15.6202 95.4163 16.0873 95.706 16.4489C95.8507 16.6145 96.0265 16.7448 96.2217 16.8309C96.4168 16.917 96.6268 16.957 96.8375 16.9481C97.0532 16.9583 97.2685 16.9222 97.4712 16.842C97.6739 16.7618 97.8598 16.639 98.0182 16.4808C98.1681 16.314 98.2848 16.1157 98.361 15.8983C98.4371 15.6809 98.4712 15.449 98.461 15.2168V11.308C98.461 11.1062 98.5495 11 98.7365 11H100.409C100.596 11 100.685 11.1062 100.685 11.308V16.3108C100.685 16.7251 100.852 16.9269 101.177 16.9269C101.329 16.9332 101.481 16.9153 101.629 16.8738C101.666 16.8625 101.705 16.8605 101.743 16.8678C101.781 16.8752 101.817 16.8918 101.849 16.9163C101.88 16.9408 101.906 16.9727 101.924 17.0095C101.942 17.0463 101.952 17.087 101.954 17.1287L102.072 18.4564Z" fill="#98C9C0" fill-opacity="0.31"/>
<path d="M118.068 18.4816C118.077 18.5184 118.078 18.5569 118.07 18.5941C118.063 18.6314 118.048 18.6665 118.027 18.697C118.005 18.7275 117.977 18.7527 117.945 18.7706C117.913 18.7885 117.878 18.7988 117.842 18.8007C117.477 18.9252 117.095 18.9911 116.711 18.9963C116.127 19.0279 115.549 18.854 115.07 18.5022C114.862 18.3514 114.694 18.1495 114.579 17.9142C114.464 17.679 114.406 17.4177 114.411 17.1535V14.734C114.432 14.2723 114.284 13.8197 113.998 13.4677C113.86 13.3067 113.69 13.1799 113.499 13.0962C113.309 13.0125 113.103 12.9741 112.897 12.9838C112.711 12.9764 112.526 13.0134 112.356 13.0918C112.185 13.1703 112.034 13.2883 111.914 13.4368C111.654 13.7818 111.522 14.2129 111.54 14.6516V18.4507C111.54 18.6463 111.452 18.7493 111.265 18.7493H109.604C109.565 18.7543 109.526 18.75 109.489 18.7368C109.452 18.7235 109.419 18.7017 109.391 18.6729C109.364 18.6441 109.343 18.6091 109.33 18.5706C109.318 18.5321 109.314 18.4911 109.319 18.4507V14.734C109.34 14.2774 109.204 13.8279 108.935 13.4677C108.815 13.3163 108.665 13.1945 108.495 13.1109C108.325 13.0273 108.14 12.9839 107.952 12.9838C107.752 12.9753 107.552 13.0113 107.365 13.0893C107.179 13.1674 107.01 13.2858 106.871 13.4368C106.589 13.7708 106.445 14.207 106.468 14.6516V18.4507C106.472 18.4911 106.468 18.5321 106.456 18.5706C106.443 18.6091 106.422 18.6441 106.395 18.6729C106.367 18.7017 106.334 18.7235 106.297 18.7368C106.26 18.75 106.221 18.7543 106.183 18.7493H104.58C104.393 18.7493 104.305 18.6463 104.305 18.4507V13.6015C104.316 13.5189 104.309 13.4347 104.284 13.3554C104.259 13.2762 104.217 13.2042 104.161 13.1452C104.104 13.0862 104.035 13.0418 103.96 13.0155C103.884 12.9893 103.804 12.9819 103.725 12.9941H103.4C103.184 12.9941 103.076 12.9117 103.076 12.747V11.5321C103.071 11.4569 103.091 11.3822 103.132 11.3204C103.173 11.2585 103.233 11.2134 103.302 11.1924C103.642 11.0629 104.002 11.0001 104.364 11.007C104.711 10.9761 105.06 11.0485 105.369 11.2161C105.679 11.3837 105.937 11.6396 106.114 11.9542C106.445 11.625 106.838 11.371 107.268 11.208C107.698 11.045 108.155 10.9766 108.611 11.007C109.054 10.9844 109.495 11.0714 109.9 11.261C110.305 11.4506 110.661 11.7375 110.941 12.0984C111.266 11.728 111.666 11.438 112.111 11.2493C112.557 11.0606 113.037 10.9778 113.516 11.007C113.945 10.986 114.374 11.0584 114.775 11.2197C115.176 11.3809 115.541 11.6275 115.846 11.9439C116.145 12.2739 116.376 12.6639 116.527 13.0905C116.677 13.517 116.743 13.9711 116.721 14.4251V16.4122C116.721 16.8034 116.888 16.999 117.203 16.999C117.355 17.0065 117.508 16.9891 117.655 16.9475C117.858 16.9475 117.966 17.0299 117.979 17.1946L118.068 18.4816Z" fill="#98C9C0" fill-opacity="0.31"/>
<path d="M0.404162 10.5542C1.13143 7.54045 2.81575 4.86423 5.18895 2.95162C7.56215 1.03902 10.4878 0 13.5 0C16.5122 0 19.4379 1.03902 21.8111 2.95162C24.1843 4.86423 25.8686 7.54045 26.5958 10.5542H25.4129C23.4174 10.5239 21.4628 11.1387 19.8237 12.3124C19.7291 12.383 19.6303 12.4475 19.5279 12.5055H19.3899C19.2876 12.4475 19.1888 12.383 19.0942 12.3124C17.4405 11.1659 15.4928 10.5535 13.5 10.5535C11.5072 10.5535 9.55953 11.1659 7.90581 12.3124C7.8112 12.383 7.71244 12.4475 7.61008 12.5055H7.47207C7.36971 12.4475 7.27095 12.383 7.17634 12.3124C5.53715 11.1387 3.58257 10.5239 1.58708 10.5542H0.404162ZM23.2837 16.9265C23.8909 16.4389 24.6435 16.1838 25.4129 16.2049H27V12.9425H25.4129C24.0577 12.9256 22.7335 13.3605 21.6375 14.1824C21.0207 14.6512 20.2745 14.9042 19.5082 14.9042C18.7419 14.9042 17.9958 14.6512 17.379 14.1824C16.2551 13.3758 14.9186 12.9435 13.5493 12.9435C12.1799 12.9435 10.8435 13.3758 9.71961 14.1824C9.10282 14.6512 8.35665 14.9042 7.59036 14.9042C6.82407 14.9042 6.07791 14.6512 5.46112 14.1824C4.35154 13.35 3.00834 12.9145 1.63636 12.9425H0V16.2049H1.58708C2.35647 16.1838 3.10908 16.4389 3.71632 16.9265C4.83812 17.7336 6.17313 18.1663 7.54107 18.1663C8.90902 18.1663 10.244 17.7336 11.3658 16.9265C11.9738 16.4404 12.7259 16.1855 13.4951 16.2049C14.2647 16.1821 15.0179 16.4374 15.6243 16.9265C16.7482 17.7331 18.0847 18.1654 19.454 18.1654C20.8233 18.1654 22.1598 17.7331 23.2837 16.9265V16.9265ZM23.2837 22.7601C23.8909 22.2726 24.6435 22.0175 25.4129 22.0385H27V18.7762H25.4129C24.0577 18.7593 22.7335 19.1942 21.6375 20.0161C21.0207 20.4849 20.2745 20.7378 19.5082 20.7378C18.7419 20.7378 17.9958 20.4849 17.379 20.0161C16.2551 19.2095 14.9186 18.7771 13.5493 18.7771C12.1799 18.7771 10.8435 19.2095 9.71961 20.0161C9.10282 20.4849 8.35665 20.7378 7.59036 20.7378C6.82407 20.7378 6.07791 20.4849 5.46112 20.0161C4.35154 19.1836 3.00834 18.7482 1.63636 18.7762H0V22.0385H1.58708C2.35647 22.0175 3.10908 22.2726 3.71632 22.7601C4.83812 23.5672 6.17313 24 7.54107 24C8.90902 24 10.244 23.5672 11.3658 22.7601C11.9738 22.2741 12.7259 22.0192 13.4951 22.0385C14.2647 22.0158 15.0179 22.271 15.6243 22.7601C16.7482 23.5667 18.0847 23.9991 19.454 23.9991C20.8233 23.9991 22.1598 23.5667 23.2837 22.7601V22.7601Z" fill="#98C9C0" fill-opacity="0.31"/>
</svg>
