<svg width="131" height="29" viewBox="0 0 131 29" fill="none" xmlns="http://www.w3.org/2000/svg">
<path d="M31 7H34V21H31V7Z" fill="#98C9C0" fill-opacity="0.31"/>
<path d="M36.0005 15.9999C36.0005 15.0098 36.3239 14.042 36.9296 13.2191C37.5353 12.3963 38.3961 11.7554 39.4029 11.3778C40.4097 11.0003 41.5171 10.9029 42.5848 11.0982C43.6525 11.2934 44.6324 11.7725 45.4003 12.4746C46.1682 13.1767 46.6895 14.0703 46.8981 15.0421C47.1068 16.0138 46.9934 17.0201 46.5723 17.9332C46.1512 18.8463 45.4414 19.6252 44.5328 20.1711C43.6243 20.7171 42.5579 21.0055 41.4688 20.9998C40.7465 21.005 40.0303 20.8789 39.3622 20.6291C38.6942 20.3793 38.0877 20.0108 37.5784 19.5451C37.0691 19.0794 36.6671 18.5259 36.3962 17.9171C36.1252 17.3084 35.9907 16.6565 36.0005 15.9999V15.9999ZM43.8782 15.9999C43.8659 15.573 43.7154 15.159 43.4455 14.8095C43.1757 14.46 42.7985 14.1906 42.3611 14.035C41.9237 13.8793 41.4456 13.8444 40.9865 13.9345C40.5274 14.0247 40.1077 14.2358 39.7799 14.5417C39.4521 14.8475 39.2308 15.2344 39.1436 15.654C39.0565 16.0736 39.1073 16.5072 39.2898 16.9007C39.4722 17.2941 39.7783 17.6299 40.1696 17.8661C40.5609 18.1023 41.0201 18.2283 41.4898 18.2284C41.8096 18.2341 42.1272 18.1797 42.4228 18.0688C42.7184 17.9578 42.9857 17.7925 43.2079 17.5834C43.4301 17.3742 43.6024 17.1256 43.7142 16.8532C43.8259 16.5807 43.8746 16.2902 43.8573 15.9999H43.8782Z" fill="#98C9C0" fill-opacity="0.31"/>
<path d="M59 11.218V20.3789C59 23.611 56.3469 24.9837 53.6633 24.9837C52.7167 25.0578 51.7672 24.8784 50.9217 24.4656C50.0762 24.0528 49.3683 23.4231 48.8776 22.6472L51.4592 21.2259C51.6684 21.6283 52.0012 21.9603 52.4132 22.1777C52.8252 22.3951 53.2968 22.4876 53.7653 22.4428C54.0637 22.4779 54.3666 22.4496 54.6523 22.36C54.9379 22.2704 55.1993 22.1217 55.4177 21.9245C55.6361 21.7273 55.8061 21.4865 55.9156 21.2193C56.0251 20.9521 56.0713 20.6651 56.051 20.3789V19.493C55.6948 19.9051 55.2428 20.2322 54.7309 20.4485C54.219 20.6649 53.6613 20.7643 53.102 20.7391C51.7489 20.7391 50.4512 20.2263 49.4944 19.3134C48.5375 18.4006 48 17.1625 48 15.8715C48 14.5805 48.5375 13.3424 49.4944 12.4295C50.4512 11.5167 51.7489 11.0038 53.102 11.0038C53.6613 10.9786 54.219 11.0781 54.7309 11.2944C55.2428 11.5107 55.6948 11.8379 56.051 12.25V11.2764L59 11.218ZM56.051 15.8423C56.0714 15.3765 55.9452 14.9156 55.6888 14.5188C55.4324 14.1219 55.0574 13.8074 54.6121 13.6155C54.1668 13.4236 53.6715 13.3633 53.1899 13.4421C52.7083 13.521 52.2625 13.7355 51.9097 14.058C51.5569 14.3806 51.3133 14.7964 51.2103 15.2521C51.1072 15.7078 51.1494 16.1825 51.3314 16.6151C51.5133 17.0477 51.8268 17.4185 52.2315 17.6798C52.6361 17.9411 53.1134 18.081 53.602 18.0814C53.9209 18.1033 54.241 18.0612 54.5417 17.9577C54.8424 17.8542 55.117 17.6918 55.3478 17.4808C55.5786 17.2697 55.7604 17.0149 55.8815 16.7327C56.0027 16.4504 56.0604 16.1471 56.051 15.8423V15.8423Z" fill="#98C9C0" fill-opacity="0.31"/>
<path d="M60.0004 15.9999C60.0004 15.0106 60.3232 14.0435 60.928 13.2211C61.5328 12.3987 62.3923 11.7578 63.3979 11.3797C64.4035 11.0015 65.5099 10.9031 66.577 11.0968C67.6441 11.2905 68.6241 11.7676 69.3929 12.4678C70.1616 13.168 70.6846 14.0598 70.8956 15.0303C71.1066 16.0008 70.9962 17.0064 70.5783 17.9199C70.1605 18.8333 69.4539 19.6135 68.5481 20.1618C67.6423 20.71 66.5779 21.0017 65.4897 20.9998C64.766 21.0062 64.0482 20.8811 63.3783 20.632C62.7085 20.3829 62.1001 20.0147 61.5888 19.549C61.0775 19.0833 60.6737 18.5295 60.4009 17.92C60.1281 17.3106 59.992 16.6578 60.0004 15.9999ZM67.8782 15.9999C67.8658 15.5726 67.715 15.1582 67.4447 14.8085C67.1744 14.4588 66.7966 14.1895 66.3586 14.0341C65.9206 13.8788 65.4419 13.8444 64.9825 13.9353C64.5232 14.0262 64.1035 14.2384 63.7762 14.5451C63.4488 14.8519 63.2283 15.2397 63.1423 15.6599C63.0563 16.08 63.1087 16.514 63.2927 16.9072C63.4768 17.3005 63.7845 17.6356 64.1771 17.8707C64.5698 18.1057 65.0301 18.2301 65.5002 18.2284C65.82 18.2341 66.1376 18.1797 66.4332 18.0687C66.7289 17.9577 66.9961 17.7925 67.2183 17.5833C67.4405 17.3742 67.6129 17.1256 67.7246 16.8532C67.8364 16.5807 67.8851 16.2902 67.8677 15.9999H67.8782Z" fill="#98C9C0" fill-opacity="0.31"/>
<path d="M72 8.73901C72 8.39507 72.1173 8.05885 72.3371 7.77287C72.5568 7.48689 72.8692 7.264 73.2346 7.13237C73.6001 7.00075 74.0022 6.96632 74.3902 7.03342C74.7781 7.10052 75.1345 7.26614 75.4142 7.50935C75.6939 7.75255 75.8844 8.06241 75.9616 8.39975C76.0387 8.73708 75.9991 9.08674 75.8478 9.4045C75.6964 9.72226 75.44 9.99386 75.1111 10.1849C74.7822 10.376 74.3956 10.478 74 10.478C73.4714 10.4729 72.9661 10.2881 72.5922 9.96306C72.2184 9.63803 72.0058 9.19865 72 8.73901V8.73901ZM72.3258 11.328H75.6966V21H72.3258V11.328Z" fill="#98C9C0" fill-opacity="0.31"/>
<path d="M87.9934 16.1703C88.0277 16.8213 87.9288 17.4725 87.7023 18.0863C87.4758 18.7002 87.1262 19.2645 86.6737 19.747C86.2212 20.2295 85.6746 20.6205 85.0655 20.8975C84.4564 21.1746 83.7967 21.3322 83.1244 21.3614C82.554 21.3981 81.9823 21.3096 81.452 21.1025C80.9218 20.8953 80.4467 20.5748 80.0622 20.1649V25H77V11.276H80.0622V12.1955C80.4472 11.7869 80.9227 11.4678 81.453 11.2624C81.9833 11.0569 82.5547 10.9703 83.1244 11.009C83.794 11.0382 84.4511 11.1949 85.0581 11.4701C85.6652 11.7453 86.2103 12.1336 86.6624 12.6129C87.1146 13.0921 87.4648 13.653 87.6932 14.2634C87.9215 14.8738 88.0235 15.5218 87.9934 16.1703V16.1703ZM84.9311 16.1703C84.9191 15.7111 84.7674 15.2655 84.495 14.8895C84.2226 14.5134 83.8417 14.2236 83.4 14.0564C82.9583 13.8891 82.4755 13.8519 82.0121 13.9493C81.5486 14.0467 81.1252 14.2745 80.7948 14.6041C80.4644 14.9336 80.2418 15.3503 80.1549 15.8019C80.0679 16.2535 80.1205 16.7199 80.3061 17.1427C80.4916 17.5654 80.8018 17.9257 81.1979 18.1784C81.5939 18.4311 82.0582 18.5649 82.5324 18.5631C82.8572 18.5765 83.1813 18.5232 83.4834 18.4067C83.7854 18.2902 84.0587 18.1132 84.2852 17.8873C84.5117 17.6614 84.6863 17.3916 84.7976 17.0957C84.909 16.7998 84.9544 16.4845 84.9311 16.1703V16.1703Z" fill="#98C9C0" fill-opacity="0.31"/>
<path d="M97 17.8797C97 20.057 95.0907 20.9833 93.0668 20.9833C92.2414 21.0576 91.4126 20.8826 90.6876 20.4809C89.9626 20.0791 89.3748 19.4691 89 18.7296L91.463 17.3354C91.5606 17.6762 91.7722 17.9731 92.0624 18.1764C92.3526 18.3798 92.7038 18.4774 93.0573 18.4527C93.7351 18.4527 94.0788 18.2426 94.0788 17.8606C94.0788 16.8198 89.4296 17.3736 89.4296 14.0982C89.4296 12.0355 91.1671 11.0041 93.1337 11.0041C93.8812 10.9707 94.6238 11.1403 95.2827 11.4951C95.9416 11.8499 96.4922 12.3765 96.8759 13.0191L94.4129 14.3178C94.3041 14.0714 94.1263 13.8619 93.901 13.7144C93.6756 13.567 93.4124 13.488 93.1432 13.487C92.6468 13.487 92.3508 13.678 92.3508 14.0122C92.3508 15.1009 97 14.3846 97 17.8797Z" fill="#98C9C0" fill-opacity="0.31"/>
<path d="M109 11V20.7007H105.852V19.7894C105.494 20.1928 105.04 20.512 104.526 20.7213C104.012 20.9307 103.453 21.0243 102.893 20.9946C100.794 20.9946 99 19.5934 99 16.9772V11H102.148V16.5362C102.123 16.7677 102.153 17.0014 102.234 17.2212C102.315 17.4411 102.447 17.6417 102.62 17.8095C102.792 17.9772 103.002 18.1079 103.234 18.1926C103.466 18.2773 103.715 18.3139 103.963 18.3C105.097 18.3 105.894 17.6729 105.894 16.3403V11H109Z" fill="#98C9C0" fill-opacity="0.31"/>
<path d="M125 15.0276V21H121.988V15.283C121.988 14.3007 121.516 13.6917 120.562 13.6917C119.608 13.6917 119.006 14.3695 119.006 15.5188V21H115.994V15.283C115.994 14.3007 115.522 13.6917 114.568 13.6917C113.614 13.6917 113.012 14.3695 113.012 15.5188V21H110V11.2752H113.012V12.1691C113.324 11.7742 113.731 11.4614 114.198 11.2591C114.664 11.0567 115.174 10.9711 115.683 11.01C116.192 10.984 116.7 11.0881 117.156 11.3119C117.611 11.5358 118 11.8718 118.283 12.287C118.614 11.8532 119.052 11.5086 119.556 11.2853C120.06 11.062 120.613 10.9673 121.165 11.01C123.514 11.01 125 12.6013 125 15.0276Z" fill="#98C9C0" fill-opacity="0.31"/>
<path d="M13 4.22089V0H0V29H13V24.7791C10.3369 24.7791 7.78297 23.6961 5.89991 21.7684C4.01685 19.8407 2.95896 17.2262 2.95896 14.5C2.95896 11.7738 4.01685 9.15928 5.89991 7.23157C7.78297 5.30387 10.3369 4.22089 13 4.22089V4.22089Z" fill="#98C9C0" fill-opacity="0.31"/>
<path d="M13.0254 4V25C15.6776 25 18.2211 23.8938 20.0965 21.9246C21.9718 19.9555 23.0254 17.2848 23.0254 14.5C23.0254 11.7152 21.9718 9.04451 20.0965 7.07538C18.2211 5.10625 15.6776 4 13.0254 4V4Z" fill="#98C9C0" fill-opacity="0.31"/>
<path d="M128.025 11C129.13 11 130.025 10.1046 130.025 9C130.025 7.89543 129.13 7 128.025 7C126.921 7 126.025 7.89543 126.025 9C126.025 10.1046 126.921 11 128.025 11Z" fill="#98C9C0" fill-opacity="0.31"/>
</svg>
