<svg width="461" height="94" viewBox="0 0 461 94" fill="none" xmlns="http://www.w3.org/2000/svg">
<path d="M4.37755 47.174C21.8908 19.3665 75.8692 19.3665 93.3825 47.174C99.2192 56.4416 99.2192 63.8751 93.3824 73.1427C75.8692 100.95 21.8908 100.95 4.37755 73.1427C-1.45918 63.8751 -1.45918 56.4416 4.37755 47.174Z" fill="#2EE6CB"/>
<path d="M63.7226 60.7989C63.7226 67.708 57.7292 73.6341 49.9243 73.6341V80.3598C61.0716 80.3598 70.4483 71.7839 70.4483 60.7989H63.7226ZM49.9243 73.6341C42.1209 73.6341 36.1314 67.7093 36.1314 60.7989H29.4057C29.4057 71.7826 38.7756 80.3598 49.9243 80.3598V73.6341ZM36.1314 60.7989C36.1314 53.8826 42.1216 47.9586 49.9243 47.9586V41.2329C38.7749 41.2329 29.4057 49.8107 29.4057 60.7989H36.1314ZM49.9243 47.9586C57.7285 47.9586 63.7226 53.8839 63.7226 60.7989H70.4483C70.4483 49.8093 61.0723 41.2329 49.9243 41.2329V47.9586Z" fill="black"/>
<rect x="46.249" width="7.52" height="71.44" rx="3.76" fill="#2EE6CB"/>
<rect x="75.1982" y="15.041" width="7.52" height="63.92" rx="3.76" fill="#2EE6CB"/>
<rect x="15.041" y="15.041" width="7.52" height="63.92" rx="3.76" fill="#2EE6CB"/>
<path d="M137.76 86.8491V24.8953H150.204L167.752 77.2695L185.299 24.8953H197.744V86.8491H190.85V32.2366H189.597L171.602 84.6109H163.902L145.907 32.2366H144.653V86.8491H137.76Z" fill="white"/>
<path d="M232.915 86.8491H226.021V60.7963L206.235 24.8953H214.024L229.423 53.9026L244.822 24.8953H252.611L232.915 60.7963V86.8491Z" fill="white"/>
<path d="M268.018 63.124V86.8491H261.124V24.8953H284.043C290.609 24.8953 295.533 26.4173 298.816 29.4612C302.158 32.5052 303.829 37.2502 303.829 43.6963C303.829 53.246 300.039 59.2444 292.459 61.6916L304.366 86.8491H296.756L285.565 63.124H268.018ZM284.133 57.0361C292.549 57.0361 296.756 52.7089 296.756 44.0544C296.756 35.3403 292.519 30.9832 284.043 30.9832H268.018V57.0361H284.133Z" fill="white"/>
<path d="M310.219 86.8491L327.23 24.8953H342.271L359.281 86.8491H352.477L348 70.913H321.5L317.023 86.8491H310.219ZM332.422 30.8042L323.022 64.7355H346.478L337.078 30.8042H332.422Z" fill="white"/>
<path d="M392.495 61.3335V55.156H409.595V85.5957C402.074 87.0282 395.36 87.7444 389.451 87.7444C380.438 87.7444 374.171 85.1481 370.65 79.9554C367.188 74.7628 365.457 66.7649 365.457 55.9617C365.457 45.0989 367.188 37.0712 370.65 31.8785C374.171 26.6262 380.378 24 389.272 24C394.822 24 400.582 24.5969 406.551 25.7906L409.595 26.3277L409.326 32.0576C401.925 30.8042 395.509 30.1775 390.077 30.1775C383.214 30.1775 378.588 32.1769 376.2 36.1759C373.813 40.1152 372.619 46.7104 372.619 55.9617C372.619 65.1533 373.813 71.7486 376.2 75.7476C378.588 79.6868 383.184 81.6564 389.988 81.6564C394.166 81.6564 398.433 81.2387 402.79 80.4031V61.3335H392.495Z" fill="white"/>
<path d="M423.132 86.8491V24.8953H460.824V30.9832H430.026V52.3806H455.452V58.379H430.026V80.7612H460.824V86.8491H423.132Z" fill="white"/>
</svg>
