<svg width="54" height="54" viewBox="0 0 54 54" fill="none" xmlns="http://www.w3.org/2000/svg">
<path d="M1.05863 17.8513C3.01312 9.51902 9.51903 3.01312 17.8513 1.05863C23.8688 -0.352876 30.1312 -0.352878 36.1487 1.05863C44.481 3.01312 50.9869 9.51903 52.9414 17.8513C54.3529 23.8688 54.3529 30.1312 52.9414 36.1487C50.9869 44.481 44.481 50.9869 36.1487 52.9414C30.1312 54.3529 23.8688 54.3529 17.8513 52.9414C9.51903 50.9869 3.01312 44.481 1.05863 36.1487C-0.352878 30.1312 -0.352877 23.8688 1.05863 17.8513Z" fill="white"/>
<path d="M13.2589 27.659L22.0602 38.7485C24.5931 41.9399 29.4086 41.9399 31.9414 38.7485L40.7427 27.659C42.9916 24.8254 42.9916 20.7991 40.7427 17.9655C37.4506 13.8175 29.8416 15.0495 27.0008 19.5236C24.1601 15.0495 16.551 13.8175 13.2589 17.9655C11.01 20.7991 11.01 24.8254 13.2589 27.659Z" stroke="black" stroke-width="2.57143" stroke-linecap="round" stroke-linejoin="round"/>
</svg>
